/* XPM */
static char *elf_1[] = {
/* columns rows colors chars-per-pixel */
"39 42 156 2 ",
"   c #543D1D",
".  c #583F1F",
"X  c #56401F",
"o  c #564220",
"O  c #584422",
"+  c #554B25",
"@  c #594926",
"#  c #564D28",
"$  c #5C4D29",
"%  c #56562B",
"&  c #5A532C",
"*  c #565C2F",
"=  c #59592E",
"-  c #5D5730",
";  c #565E30",
":  c #5B5D31",
">  c #604D2A",
",  c #64522E",
"<  c #675430",
"1  c #695632",
"2  c #615D35",
"3  c #6C5A35",
"4  c #6F5E38",
"5  c #705F39",
"6  c #576233",
"7  c #5C6336",
"8  c #5E6438",
"9  c #5B6C3A",
"0  c #5B733E",
"q  c #636137",
"w  c #626339",
"e  c #6D633A",
"r  c #636A3E",
"t  c #6D683E",
"y  c #74633D",
"u  c #70683F",
"i  c #60713E",
"p  c #5D7740",
"a  c #5C7B43",
"s  c #666E42",
"d  c #6C6D41",
"f  c #7D6C45",
"g  c #657244",
"h  c #697345",
"j  c #617C45",
"k  c #6F7947",
"l  c #6A7648",
"z  c #647E4A",
"x  c #6B7D4B",
"c  c #717646",
"v  c #757549",
"b  c #7E7249",
"n  c #717E4B",
"m  c #7B7A4D",
"M  c #83754C",
"N  c #86784E",
"B  c #88794F",
"V  c #867C51",
"C  c #8B7D53",
"Z  c #5D8146",
"A  c #5E8549",
"S  c #5F8A4C",
"D  c #64844C",
"F  c #68834E",
"G  c #628A4E",
"H  c #678750",
"J  c #6C8452",
"K  c #638D50",
"L  c #6E8A56",
"P  c #778051",
"I  c #7B8453",
"U  c #718C54",
"Y  c #708C58",
"T  c #669155",
"R  c #689357",
"E  c #6B945A",
"W  c #6D995D",
"Q  c #729056",
"!  c #72935C",
"~  c #79965B",
"^  c #71995E",
"/  c #6E9C60",
"(  c #739760",
")  c #7A9661",
"_  c #749D64",
"`  c #7A9962",
"'  c #75A066",
"]  c #76A369",
"[  c #7BA66C",
"{  c #7BA86E",
"}  c #808152",
"|  c #8C8156",
" . c #848758",
".. c #8F895C",
"X. c #918459",
"o. c #958A5E",
"O. c #988B5F",
"+. c #80925D",
"@. c #80985F",
"#. c #9B8E62",
"$. c #859965",
"%. c #9D9264",
"&. c #949C67",
"*. c #9E9A6A",
"=. c #A09366",
"-. c #A19769",
";. c #A39C6C",
":. c #85A26B",
">. c #8EA16C",
",. c #8EA96E",
"<. c #8FA670",
"1. c #85AC72",
"2. c #9CA772",
"3. c #9BAC74",
"4. c #8BB177",
"5. c #95B37A",
"6. c #98B97F",
"7. c #A0A26F",
"8. c #ACA474",
"9. c #A3A974",
"0. c #AFA877",
"q. c #A5AC78",
"w. c #AEAC7A",
"e. c #B3AB7A",
"r. c #A0B077",
"t. c #A2B47A",
"y. c #AEB17D",
"u. c #B3B07D",
"i. c #B8B17F",
"p. c #A1BB81",
"a. c #ACBD85",
"s. c #B4B480",
"d. c #BBB582",
"f. c #B1B881",
"g. c #BFB986",
"h. c #C0BA87",
"j. c #C2BD89",
"k. c #AFC289",
"l. c #B4C38B",
"z. c #BBC28B",
"x. c #BACA90",
"c. c #C5C38D",
"v. c #C8C48F",
"b. c #C6C790",
"n. c #C9C691",
"m. c #C4CC94",
"M. c #CBCA94",
"N. c #CFCF98",
"B. c #D2CF98",
"V. c #CCD299",
"C. c #D4D39B",
"Z. c #D8D59E",
"A. c #D9D7A0",
"S. c #DCDBA3",
"D. c #E3E3AA",
"F. c #D4D29B",
/* pixels */
"F.F.F.F.F.F.F.F.F.F.o X X X o X     X X X                 F.F.F.F.F.F.F.F.F.F.",
"F.F.F.F.F.F.F.F.F.F.$ $ $ $ $ $ , , $ $ $ - , , , < , < , F.F.F.F.F.F.F.F.F.F.",
"F.F.F.F.F.F.F.F.F.$ 2 s g s l m C V v h v V C X.X.X.X.C f , F.F.F.F.F.F.F.F.F.",
"F.F.F.F.F.F.F.F.X - h ! ( E ) 2.s.s.>.) &.s.j.j.g.g.g.s.X.3 X F.F.F.F.F.F.F.F.",
"F.F.F.F.F.F.F.$ - 2 l Y ! ! ) 3.l.l.p.{ 4.a.m.m.x.m.m.g.*.b 4 < F.F.F.F.F.F.F.",
"F.F.F.F.F.F.@ q h x l s r 8 s +.5.p.4.{ 1.p.p.p.p.p.p.p.q.7.#.f @ F.F.F.F.F.F.",
"F.F.F.F.F.  @ r Y Y g < @ @ 2 k ( [ [ [ [ { [ [ { { { 1.p.z.0.M >   F.F.F.F.F.",
"F.F.F.F.F.  @ s ( ( s $ > 5 b m x Y ( _ ] ] ] ] ] ] _ [ p.k.q.b >   F.F.F.F.F.",
"F.F.F.F.F.. @ r ! ! s $ y O.8.X.d r J ' [ ] ] ] [ ] ] { 1.4.$.d @   F.F.F.F.F.",
"F.F.F.F.F.X @ r Y ! s & f e.c.%.3 - x ' [ [ ] ] ] _ ' _ ] ' Y r @ . F.F.F.F.F.",
"F.F.F.F.F.  @ 7 H H 8 $ f e.v.-.1 & l ' { { ' ^ E R E E W R z 7 @ X F.F.F.F.F.",
"F.F.F.F.F.. @ 7 j a 6 $ M e.c.%.3 - z ' { { ' W K G G G S H a : O O F.F.F.F.F.",
"F.F.F.F.F.O O : p a ; $ f e.c.*.t 7 z / ' / ' ^ ~ Y z p p 0 7 % @ O F.F.F.F.F.",
"F.F.F.F.F.. @ : p p ; @ f e.c.9.k 0 D K T T ^ ,.q.&.v : % % & # O O F.F.F.F.F.",
"F.F.F.F.F.. @ : p a 6 & M e.b.t.~ D Z Z Z Z Q 3.c.0.b @ @ $ $ O O O F.F.F.F.F.",
"F.F.F.F.F.O @ = p a 0 8 m u.M.z.3.@.F 9 6 6 n 9.c.e.f O # : : & O O F.F.F.F.F.",
"F.F.F.F.F.X @ : 0 Z Z 0 @.u.B.C.c.9.m 2 + + e *.b.e.f @ 7 J x 8 @ O F.F.F.F.F.",
"F.F.F.F.F.X @ * 0 Z Z j @.u.B.S.C.i.N $ X + t *.c.s.C f m :.) d @   F.F.F.F.F.",
"F.F.F.F.F.O @ * 0 A 0 9 } u.C.S.Z.i.M @ + 8 P q.n.j.0.-.q.a.2.v >   F.F.F.F.F.",
"F.F.F.F.F.. @ : 0 Z 6 & b w.C.S.Z.i.B , q H 1.k.M.C.M.n.M.M.e.M @   F.F.F.F.F.",
"F.F.F.F.F.O O : 0 a ; $ y 0.C.S.Z.j.=.B  .<.t.x.C.A.S.C.n.s.=.f $ F.F.F.F.F.F.",
"F.F.F.F.F.O @ : Z a ; $ M 0.C.S.Z.M.h.u.i.z.m.V.A.S.S.N.8.C f 3 F.F.F.F.F.F.F.",
"F.F.F.F.F.X @ = 0 0 * $ y 8.c.M.M.M.b.b.b.c.c.v.n.b.b.g.#.f > F.F.F.F.F.F.F.F.",
"F.F.F.F.F.F.@ % 6 * % X 1 N %.7.9.r.t.t.9.*.%.%.#.#.%.%.X.X.M y F.F.F.F.F.F.F.",
"F.F.F.F.F.F.F.F.@ @ @ X > , e c L Q ! E n d 3 3 3 3 3 d #.e.8.N >   F.F.F.F.F.",
"F.F.F.F.F.F.F.3 e y y e < > @ ; 0 A Z Z 9 ; $ & - $ o $ X.j.d.C @   F.F.F.F.F.",
"F.F.F.F.F.F.> M O.-.8.-.C 3 @ * a A A Z p 9 9 p g 8 # < #.j.h.C >   F.F.F.F.F.",
"F.F.F.F.F.  @ M e.M.B.b.8.y $ * 0 S A A Z Z D R ( J : < X.d.s.C $   F.F.F.F.F.",
"F.F.F.F.F.  @ C h.S.D.Z.0.M @ * Z S A A A A K / ' Y 2 > f #.%.M > F.F.F.F.F.F.",
"F.F.F.F.F.  $ B i.Z.D.Z.0.f $ * 0 S A A A A K / _ Y q @ , 5 f 3 F.F.F.F.F.F.F.",
"F.F.F.F.F.  > M 8.c.v.c.;.f & 6 Z A A A A Z K / ' Y q @ o o o F.F.F.F.F.F.F.F.",
"F.F.F.F.F.F.F.f | o.O.O.} t 9 0 Z A A S A A K / _ Y 2 @     F.F.F.F.F.F.F.F.F.",
"F.F.F.F.F.F.F.F.1 1 1 1 q i a Z A D A A A A G W _ L q O   F.F.F.F.F.F.F.F.F.F.",
"F.F.F.F.F.F.F.F.X     o & 0 A S A Z a 0 0 0 j F J l 2 O X F.F.F.F.F.F.F.F.F.F.",
"F.F.F.F.F.F.F.F.F.F.  X & 0 A S A Z 9 : % = = q w 2 $ O O F.F.F.F.F.F.F.F.F.F.",
"F.F.F.F.F.F.F.F.F.F.  @ & 0 Z A Z 0 : @ O @ @ @ @ @ O O O F.F.F.F.F.F.F.F.F.F.",
"F.F.F.F.F.F.F.F.F.F.O O & : 9 9 9 7 & O . X X X X X O O O F.F.F.F.F.F.F.F.F.F.",
"F.F.F.F.F.F.F.F.F.F.O O @ # & & & $ # F.F.F.F.O O O O O O F.F.F.F.F.F.F.F.F.F.",
"F.F.F.F.F.F.F.F.F.F.O O O O X O O O F.F.F.F.F.F.O O O O F.F.F.F.F.F.F.F.F.F.F.",
"F.F.F.F.F.F.F.F.F.F.O O O O O X O F.F.F.F.F.F.F.F.F.F.F.F.F.F.F.F.F.F.F.F.F.F.",
"F.F.F.F.F.F.F.F.F.F.O O O O O O F.F.F.F.F.F.F.F.F.F.F.F.F.F.F.F.F.F.F.F.F.F.F.",
"F.F.F.F.F.F.F.F.F.F.O O O O @ O F.F.F.F.F.F.F.F.F.F.F.F.F.F.F.F.F.F.F.F.F.F.F."
};
