/* XPM */
static char *exit[] = {
/* columns rows colors chars-per-pixel */
"39 42 120 2 ",
"   c #4F3A19",
".  c #533D1D",
"X  c #55401F",
"o  c #574221",
"O  c #584422",
"+  c #594B26",
"@  c #5A4E29",
"#  c #5A532B",
"$  c #575A2E",
"%  c #5A592F",
"&  c #5F5630",
"*  c #5B5C31",
"=  c #614E2B",
"-  c #64532E",
";  c #685632",
":  c #615E36",
">  c #6A5A34",
",  c #5B6435",
"<  c #5B6837",
"1  c #5E6639",
"2  c #5C6C3A",
"3  c #5C723E",
"4  c #606037",
"5  c #636239",
"6  c #6C653C",
"7  c #61693D",
"8  c #6B693F",
"9  c #74643D",
"0  c #5D7640",
"q  c #5D7C44",
"w  c #666E42",
"e  c #686D42",
"r  c #776B43",
"t  c #7B6B43",
"y  c #647243",
"u  c #687144",
"i  c #607E46",
"p  c #6A7749",
"a  c #667E4B",
"s  c #6C7F4F",
"d  c #707246",
"f  c #787046",
"g  c #77784C",
"h  c #83744B",
"j  c #817A4F",
"k  c #877F53",
"l  c #887B51",
"z  c #5E8147",
"x  c #5E8549",
"c  c #5E884B",
"v  c #61854B",
"b  c #628A4E",
"n  c #6E8553",
"m  c #648D51",
"M  c #6B8B54",
"N  c #728252",
"B  c #718A57",
"V  c #679256",
"C  c #699257",
"Z  c #679458",
"A  c #6B955A",
"S  c #6D995D",
"D  c #73945E",
"F  c #6F9C60",
"G  c #749760",
"H  c #739E64",
"J  c #74A166",
"K  c #79A266",
"L  c #76A469",
"P  c #7BA46A",
"I  c #7CA86E",
"U  c #7FAB70",
"Y  c #8F8257",
"T  c #8F8358",
"R  c #878C5C",
"E  c #908257",
"W  c #93865A",
"Q  c #809561",
"!  c #8A9463",
"~  c #839D67",
"^  c #9F9567",
"/  c #9D9768",
"(  c #A09768",
")  c #A39B6C",
"_  c #A89D6E",
"`  c #A99F70",
"'  c #90A56F",
"]  c #84AB71",
"[  c #8AAE75",
"{  c #9CA370",
"}  c #8EB175",
"|  c #92B277",
" . c #93B47A",
".. c #9BB37B",
"X. c #9FB87F",
"o. c #A2A170",
"O. c #ACA273",
"+. c #A2AC77",
"@. c #B4AD7C",
"#. c #AEB27E",
"$. c #9EBA80",
"%. c #A3BC83",
"&. c #A9BE85",
"*. c #BBB482",
"=. c #BDB986",
"-. c #C0BA87",
";. c #C3BD89",
":. c #A5C086",
">. c #ACC188",
",. c #B1C289",
"<. c #BBC28B",
"1. c #BDC890",
"2. c #C4C08B",
"3. c #C8C48F",
"4. c #C2CB93",
"5. c #CCCB95",
"6. c #D2CF99",
"7. c #C9D198",
"8. c #D3D49C",
"9. c #D4D29B",
/* pixels */
"9.9.9.O O O . X . . . . X o O O 9.9.9.9.9.9.9.9.9.9.9.9.9.9.9.9.9.9.9.9.9.9.9.",
"9.9.9.O O + @ - - - - - = O O O 9.9.9.9.9.9.9.9.9.9.9.9.9.9.9.9.9.9.9.9.9.9.9.",
"9.9.o O @ : e g k E W E h ; O . 9.9.9.9.9.9.9.9.9.9.9.9.9.9.9.9.9.9.9.9.9.9.9.",
"O O o O # u D ' #.;.;.*.^ 9 + . 9.9.9.9.9.9.9.9.9.9.9.9.9.9.9.9.9.9.9.9.9.9.9.",
"O O o O & a H | ,.4.7.4.o.r O . 9.9.9.9.9.9.9.9.9.9.9.9.9.9.9.9.9.9.9.9.9.9.9.",
"O O O O % y A ~  .%.%.$.! r O . X . . .   . . X O 9.9.9.9.9.9.9.9.9.9.9.9.9.9.",
"O O o O # 2 v A L U ] P B 5 O O O O = @ @ = O + O O 9.9.9.9.9.9.9.9.9.9.9.9.9.",
"O O o o # < x V F L L L n * + # 5 e t h h h t > + O 9.9.9.9.9.9.9.9.9.9.9.9.9.",
"O O O O @ 2 x V H L I L n : @ 4 s G / @.*.*.) h = . 9.9.9.9.9.9.9.9.9.9.9.9.9.",
"O O O O # 2 x m S L L L n : @ 7 D [ %.4.6.8.=.T ; . 9.9.9.9.9.9.9.9.9.9.9.9.9.",
"O O X O # 2 v b V S L H n : @ , n K  .&.1.8.;.W ; . . . 9.9.. . . . o 9.9.9.9.",
"O O O O # < x x b m S H B : @ , i V H [ %.7.;.W = . O O O O O O O O O O 9.9.9.",
"O O X O # 2 x x v b S H B : @ $ q b A L $.4.;.W - O # : 6 9 r r 9 > = O 9.9.9.",
"O O O O # 2 x x x b S H B : # $ q b S P $.4.;.W - # w N ! ) ` O.( l ; O 9.9.9.",
"O O O O # 2 x x x b S H N 4 @ * q m S L $.1.=.k - * v ~ ..<.5.6.3.( 9 o 9.9.9.",
"O O O O # 2 q x x b S L n 4 @ % q m G L  .%.+.l - * a H } >.4.8.8._ 9 O 9.9.9.",
"O O o O # 2 z x x b S H n 4 @ $ q b S L ] [ ~ p @ % 3 m H ] +.4.5.` r X 9.9.9.",
"O O O O # 2 x x x b S L B 4 @ $ q b A H L L D y @ # 3 v Z L } >.<./ 9 o O 9.9.",
"O O o o # 2 x c c b S L B 4 + , q b V V S J D w @ # 2 v Z J U  ...R : + $ q c ",
"O O X X # 2 z x x b S H N 4 @ % q x b b A J D e @ # 2 b Z J I U ~ s : @ < q c ",
"O O O O + , 2 3 3 3 v N y & @ * q x x c V J D u # # 2 x V S J J H s - @ , z c ",
"+ o O O + + # # # % : : - + @ , q x x v V H D u @ # 3 x c V Z H H s & @ , q c ",
"O O O O + + + @ + + + + + X + % 0 x x c Z J D e @ # 3 x c c V S H s & # , z c ",
"O O O O + # % * , , , * $ + + , q x c c A J S u # # 2 x x x m S H v & + < q c ",
"O O X O # , q q q 3 q q < # + , q c x v Z L D e @ # 3 x x x m H H s & @ , q c ",
"O O O O # 2 q x q q q 3 2 # + % 2 q 3 q v n n 5 @ # 2 x x x m S H n & # , q c ",
"O O o O # 2 x q , * * % # + O @ $ % % % 4 5 5 % + % 2 x c x m F G g % @ 2 q c ",
"O O O O # 3 q 2 $ @ @ @ + O O + + @ @ + @ @ @ o O % 3 z x x m F H s : @ , q c ",
"O O O O # 3 x 3 , % % % % % % % % % % % % % # + O % 3 x c x V S H N % @ , z x ",
"O O X O # 2 x x q 3 3 3 3 3 q 3 3 3 q 3 3 3 2 % @ # 3 x c c V J J N % @ , z c ",
"O O O O # , 3 x q q x x x x q q q q q q q x q % + # 2 q q q x M D a % + < q v ",
"O O X O + % * , , 2 3 x q 2 , , , , , 2 3 x q , + + # , , , 2 y 8 5 @ + < z b ",
"O O O O o @ @ + + $ 2 z 3 * @ + @ + + @ , q 3 < @ O + @ @ @ @ = @ @ O @ < q x ",
"O O O O + @ @ # @ % 3 q 3 2 # # # # @ $ < q z 2 % # # @ + X X X X X X @ < z c ",
"O O O O @ % 2 2 3 3 3 x x 3 3 3 3 2 2 2 3 z x q 3 3 3 < % + . . X X X - < q c ",
"O O O O # < z x x z x x z z q q q q z x x x z q q z z q < @ + + + + X @ 2 z c ",
"O O O O # 2 x c c v i 2 2 2 2 2 2 3 v x i 3 2 2 2 3 v x 3 2 , , % # + @ < z c ",
"O O O O # 2 x b c q < % + # # # # * 3 x 3 % # = # , 3 x x 3 3 q 3 , @ @ 2 3 x ",
"O O O O # , q q q 3 % + X O X X O # < 3 < # O X + # 2 q z 3 q q 3 , @ @ < q x ",
"9.9.O O + # * , , % # O O O X X X + % % # + X O X + $ % , , , , , % + @ < z c ",
"9.9.9.O O + @ @ + + + O O O O O O O + + O O O O O O O + + + + + + + X @ < z c ",
"9.9.9.O O X X X X X X O O O O O O O O O O O O O O O O O X O X O X X X @ < z c "
};
