/* XPM */
static char *floor[] = {
/* columns rows colors chars-per-pixel */
"42 42 36 1 ",
"  c #6E9F65",
". c #72A167",
"X c #73A268",
"o c #76A369",
"O c #78A46A",
"+ c #7EA76D",
"@ c #82A96F",
"# c #83A970",
"$ c #84AA70",
"% c #87AC72",
"& c #8AAD74",
"* c #8FAF76",
"= c #91B077",
"- c #96B37A",
"; c #99B57C",
": c #A0B87F",
"> c #A1B880",
", c #A5BB82",
"< c #A7BC83",
"1 c #A8BC84",
"2 c #AEBF87",
"3 c #B0C088",
"4 c #B6C38B",
"5 c #B7C48C",
"6 c #BAC58D",
"7 c #BFC790",
"8 c #C1C991",
"9 c #C5CA93",
"0 c #CACD96",
"q c #CCCE97",
"w c #CECF98",
"e c #D4D29B",
"r c #D5D29B",
"t c #D7D39C",
"y c #D7D49D",
"u c #DAD59E",
/* pixels */
"OOoo.o.ooo...O-7rtrtt8;O o&402#..o.o.ooooO",
"OO+@$$###@##@#:8rtrtt8:$+@-603=@@@@####+OO",
"o+*>1,,,,,,,,<40rrere05<>,39082,,,,,,1>*+o",
"o@>8qq00000000wrereeerw000qrrr000000qq8>@o",
"o$<quutttttttttreeeeertttttrrrttttttuu0<$o",
"o$,0uyrttrrttrreeeeeeerrtrrrrrrttrrtyuq,$.",
".#,0trrreeeeeeeeeeeeeeeereeeeereeerrtt0,$.",
"o#,0tteeeeeeeeeeeeeeeeeeeeeeeeeeerrrrt0,#o",
"o#,0tteeeeeeeeeeeeeeeeeeeeeeeeeeeeeert0,@o",
".#,0treeeeeeeeeeeeeeeeeeeeeeeeeeeeeett0,#.",
"o$,0tteeeeeeeeeeeeeeeeeeeeeeeeeeeeeert0,#o",
"o$,0treeeeeeeeeeeeeeeeeeeeeeeeeeeeeett0,#.",
".#,0tteeeeeeeeeeeeeeeeeeeeeeeeeeeeeett0,$.",
"o#,0tteeeeeeeeeeeeeeeeeeeeeeeeeeeeeeru0,$o",
"o@,0treeeeeeeeeeeeeeeeeeeeeeeeeeeerrtt0,$.",
"o@,0tteeeeeeeeeeeeeeeeeeeeeeeeeeeeerrt0,#o",
".@,0treeeeeeeeeeeeeeeeeeeeeeeeeeeeeert0,@.",
".@,0teeeeeeeeeeeeeeeeeeeeeeeeeeeeeeett0,@ ",
"O$<0treeeeeeeeeeeeeeeeeeeeeeeeeeeeeert0<&O",
";>60treeeeeeeeeeeeeeeeeeeeeeeeeeeeeert06;;",
"890reeeeeeeeeeeeeeeeeeeeeeeeeeeeeeeeere008",
"ytrreeeeeeeeeeeeeeeeeeeeeeeeeeeeeeeeeeertt",
"ttrreeeeeeeeeeeeeeeeeeeeeeeeeeeeeeeeeerrtt",
"eeeeeeeeeeeeeeeeeeeeeeeeeeeeeeeeeeeeeeeerr",
"ttrrreeeeeeeeeeeeeeeeeeeeeeeeeeeeeeeeeertt",
"rerrreeeeeeeeeeeeeeeeeeeeeeeeeeeeeeeeerrrr",
"680rreeeeeeeeeeeeeeeeeeeeeeeeeeeeeeeere086",
";:5qtreeeeeeeeeeeeeeeeeeeeeeeeeeeeeert04:;",
"O#<0tteeeeeeeeeeeeeeeeeeeeeeeeeeeeeett0,%o",
".@,0treeeeeeeeeeeeeeeeeeeeeeeeeeeeeeru0,@.",
".#,0treeeeeeeeeeeeeeeeeeeeeeeeeeeeertt0,@.",
"o#,0treeeeeeeeeeeeeeeeeeeeeeeeeeeeerrt0,#o",
"o#,0tteeeeeeeeeeeeeeeeeeeeeeeeeeeeeett0,#o",
".#,0treeeeeeeeeeeeeeeeeeeeeeeeeeeeeert0,#.",
"o$,0ttereeeeeeeeeeeeeeeeeeeeeerreeeett0,$o",
"o$,0trereeeeeeeeeeeeeeeeeeeeeeereeeeru0,#o",
".#,qutrttrtrrtrreeeeeertrrrrrrrrrttrtuq<#X",
"o$<quututttttttreeeeertutttrrrtuttttuuq<$.",
"X@>8qq000000000rerereewq000rrr000000008>@o",
"o+*>,<,,,,,,,,40rrere061:,39082>,,,,,,>=+o",
"Oo+@$$#@#####$>8rtrtr8:$+@-604=#@@#$$$@+OO",
"Ooooo.oo.oo..o-8ttrtt8;O .%402#..oo.o.ooOO"
};
