/* XPM */
static char *play_left_1[] = {
/* columns rows colors chars-per-pixel */
"42 42 174 2 ",
"   c #543E1D",
".  c #54411F",
"X  c #554421",
"o  c #594624",
"O  c #564C26",
"+  c #5B4926",
"@  c #564D28",
"#  c #5C4D29",
"$  c #56552B",
"%  c #5D532D",
"&  c #565A2E",
"*  c #59582E",
"=  c #5C5730",
"-  c #575E31",
";  c #5C5C32",
":  c #614E2A",
">  c #62522D",
",  c #645631",
"<  c #685732",
"1  c #645A33",
"2  c #6C5B35",
"3  c #6E5E38",
"4  c #715F39",
"5  c #576232",
"6  c #5A6335",
"7  c #556836",
"8  c #596836",
"9  c #5B6C3B",
"0  c #5B743E",
"q  c #626137",
"w  c #62663B",
"e  c #6C633A",
"r  c #636A3D",
"t  c #6B693F",
"y  c #74633D",
"u  c #61713F",
"i  c #5C7640",
"p  c #577940",
"a  c #5D7B43",
"s  c #646E41",
"d  c #776740",
"f  c #796740",
"g  c #756B42",
"h  c #7B6B44",
"j  c #667345",
"k  c #6B7245",
"l  c #617C46",
"z  c #6F7749",
"x  c #657E4B",
"c  c #6B7B4C",
"v  c #727245",
"b  c #7D7148",
"n  c #737C4E",
"m  c #7F7B4E",
"M  c #7B7D50",
"N  c #806E46",
"B  c #83744B",
"V  c #86784E",
"C  c #867D51",
"Z  c #8B7C52",
"A  c #5C8247",
"S  c #5E8549",
"D  c #62834B",
"F  c #6C814B",
"G  c #638A4E",
"H  c #79804F",
"J  c #6B8452",
"K  c #658D51",
"L  c #6B8C54",
"P  c #6E8D58",
"I  c #798251",
"U  c #738A56",
"Y  c #738E5A",
"T  c #7D8959",
"R  c #679256",
"E  c #6B9257",
"W  c #6B9459",
"Q  c #6C9A5D",
"!  c #71915C",
"~  c #7C945C",
"^  c #70995E",
"/  c #6F9A60",
"(  c #739C63",
")  c #7D9D63",
"_  c #75A166",
"`  c #76A369",
"'  c #7AA56B",
"]  c #7CA86E",
"[  c #848456",
"{  c #8D8256",
"}  c #858758",
"|  c #8E8559",
" . c #848A5B",
".. c #8E8A5C",
"X. c #91855A",
"o. c #958B5E",
"O. c #82975F",
"+. c #968E60",
"@. c #998F62",
"#. c #8E9665",
"$. c #8D9D66",
"%. c #809F68",
"&. c #8C9F6B",
"*. c #969464",
"=. c #9D9365",
"-. c #9F9668",
";. c #989C6A",
":. c #A29769",
">. c #A69C6D",
",. c #A89E6F",
"<. c #A99F70",
"1. c #87A167",
"2. c #88A267",
"3. c #82A76E",
"4. c #82A86F",
"5. c #8EA86D",
"6. c #94A36D",
"7. c #8EA771",
"8. c #85AB72",
"9. c #8CAD74",
"0. c #92A771",
"q. c #92AD75",
"w. c #9BAB76",
"e. c #9EAF78",
"r. c #8BB076",
"t. c #8EB278",
"y. c #93B077",
"u. c #92B279",
"i. c #9CB47C",
"p. c #96B87D",
"a. c #A5A372",
"s. c #ACA474",
"d. c #A2AA76",
"f. c #A8AB77",
"g. c #A2AF7A",
"h. c #ACAE79",
"j. c #B1A777",
"k. c #B0A877",
"l. c #B3AC7B",
"z. c #A2B57E",
"x. c #ABB37D",
"c. c #B6B07E",
"v. c #B8B17F",
"b. c #AEB681",
"n. c #A6BA82",
"m. c #AABD84",
"M. c #B4B581",
"N. c #BAB482",
"B. c #B2BD85",
"V. c #BABA85",
"C. c #BBBE89",
"Z. c #C0BA87",
"A. c #C2BD89",
"S. c #ACC087",
"D. c #AEC289",
"F. c #B5C38B",
"G. c #BCC48D",
"H. c #BAC88F",
"J. c #BDC991",
"K. c #C4C28D",
"L. c #C8C48F",
"P. c #C4C690",
"I. c #C9C691",
"U. c #C4CA92",
"Y. c #CDCC95",
"T. c #CFCF98",
"R. c #D0CD97",
"E. c #D1CE98",
"W. c #CED098",
"Q. c #D4D29B",
"!. c #D9D69F",
"~. c #D9D7A0",
"^. c #DBD9A2",
"/. c #E3E4AA",
/* pixels */
"' ' ' ] 3.4.4.4.4.4.3.4.9.i.m.H.Q.^.^.^.W.U.D.i.r.t.m.J.H.D.n.q.8.] 3.3.3.3.] ] ' ' ",
"' ' 8.9.9.9.9.9.9.9.8.9.q.q.z.M.G.L.I.L.A.B.z.0.%.4.e.b.b.g.w.q.9.9.9.9.9.9.9.] ' ' ",
"' 8.9.i.n.n.n.n.n.n.m.m.e.#.} } o.=.=.=.+...} M n n [ ..} [  .6.n.m.m.m.m.n.n.9.3.' ",
"3.8.i.G.U.U.U.I.U.U.U.U.h.C 2 , 2 3 2 2 2 < 1 , > , 1 1 < = d +.C.U.U.P.U.P.B.n.9.] ",
"4.9.n.I.E.Q.Q.Q.Q.E.I.N.,.Z y 4 4 4 y 4 2 1 1 1 3 3 1 1 % = e [ s.A.Y.E.~.T.U.n.9.3.",
"3.9.n.U.Q.Q.Q.!.^.Y.j.X.Z o.:.:.:.:.:.:...I c } =.=. .c x c n n V =.Z.Q.~.~.U.n.9.3.",
"3.9.n.U.E.Q.E.Q.Q.Z.o.y h >.K.U.I.I.U.I.m.9.' w.C.C.w.( ( ( Y s 1 h <.I.~.T.U.n.9.3.",
"8.9.n.U.Q.!.E.L.l.>.X.V X.d.F.J.H.H.H.G.n.r.8.p.D.n.&.U J J c j s v ..<.V.I.U.n.9.3.",
"3.9.n.U.E.~.R.j.{ B X.s.x.i.u.u.t.u.u.t.r.] ] r.t.3.n ; ; = s k J n z b -.V.U.m.9.4.",
"3.9.n.U.!.~.R.,.y < X.V.F.p.] ` ` ' ' ` ' ` ` ( ( Y z 2 : + # j Y P ; , Z N.U.m.9.4.",
"3.9.n.U.Q.~.Y.>.4 , M g.n.r.` ` ` ` ` ` ` ' ( Y c z M Z N > # s L D ; # B N.P.m.9.4.",
"3.9.n.U.E.!.R.,.d # k ) 8.] ` ` ` ` ` ` ' ' ( x 1 d -.N.:.y @ 6 a i & , Z N.P.m.9.4.",
"3.9.n.U.E.~.R.,.d # s P / _ ( / ( / ( ' ' ] ( j # 4 >.I.j.f # 5 a 0 $ # Z N.U.m.9.4.",
"3.9.n.U.Q.~.R.<.d # 8 D R R R R K R / ` ] ] ( j # 4 >.I.j.f # 5 i 0 $ % Z N.U.m.9.4.",
"3.9.n.U.Q.~.Y.<.d @ - a S S S D K P / ( ` ` ( j = d ,.I.s.f # 5 a i * : Z M.U.m.9.4.",
"3.9.n.U.Q.~.Y.<.d + $ - 7 8 9 n O.1.) ( / / W l 6 z a.I.s.f @ 5 a i * : V N.U.n.9.3.",
"3.9.z.U.Q.!.R.a.y o . # O O > [ d.m.6.E K K K A 0 L x.L.s.y > 8 a 0 & : Z N.U.m.9.] ",
"8.q.m.U.Q.!.R.<.h o O > # . : { N.K.0.F 0 0 A A E 2.D.U.s.y * 8 a 0 $ # C N.Y.m.t.8.",
"i.i.F.U.Q.!.R.,.y # * u r O . { v.K.*.r & & w H 6.x.U.Y.h.H 9 0 S 0 $ + B N.Y.F.n.e.",
"m.B.G.T.Q.!.Y.,.y % u Y L q , { V.K.o.1 X . , { c.T.!.W.x.~ D A S 9 & , Z N.Y.J.m.m.",
"G.G.U.Q.Q.!.E.,.y > n 0.5.} V :.A.K.=.t @ . : X.A.^.^.T.x.) S p 9 9 s B :.C.T.U.G.G.",
"Y.Y.T.Q.Q.!.R.>.y 2 } B.K.v.l.Z.Y.K.w.Y 9 @ : Z Z.!.^.T.m.) A 7 - d X.k.A.I.~.T.Y.Y.",
"Q.Q.Q.Q.Q.!.R.,.y < Z c.Y.R.R.!.Q.U.S.4.Y e e o.A.!.^.T.x.~ a 5 < b <.Y.~.E.E.~.Q.E.",
"!.Q.Q.Q.!.^.E.a.y + y o.j.I.~.^.!.Q.J.D.e.*.=.j.I.!.^.Q.f.[ u t | <.A.~.~.~.T.~.~.~.",
"Q.Q.Q.Q.Q.~.T.<.y + + 2 { j.R.!.Q.Q.T.Y.P.A.A.I.E.!.~.R.a.y e { M.A.E.~.~.E.Q.Q.~.Q.",
"Y.T.W.Q.E.L.N.:.B 4 + . 4 o.v.N.N.N.v.N.V.A.G.G.G.A.P.V.*.3 > m s.N.N.N.A.R.~.W.Y.Y.",
"G.G.U.W.K.,.{ X.=.@.y + + y Z { Z Z Z Z | $.5.5.2.6.2.$.H 1 : 2 B Z V Z <.A.~.Y.G.F.",
"n.m.J.T.N.Z 2 V l.N.=.2 o + : : > > : > q l G K K K K K u > o + > > > 2 X.N.P.G.m.n.",
"u.i.F.Y.c.b : b v.R.v.X.y > . O * 5 * * 8 0 A A A S A A 8 $ + < f N b B | -.a.e.e.u.",
"9.u.D.U.c.B : b v.E.R.N.:.y : ; F F D u p A A A S A S A 0 $ > B <.M.N.s.@.B b  .7.r.",
"3.9.m.U.N.X.y V s.K.I.K.,.h : w E _ E G S S S S S S A a 8 # < o.A.~.^.Y.:.4 = z ) 9.",
"3.8.n.U.L.j.@.X.X.X.o.o.V 2 # r ^ _ Q G S S S S A A u 8 $ . 2 @.Y././.E.:.2 @ z ) 8.",
"4.9.m.K.E.R.Z.>.B < > < > : o t ! _ R G A S S S S a 6 % o   < o.A.!.^.I.:.4 = z ) 9.",
"4.9.n.U.Q.^.E.l.{ y y y 2 : O t ! _ Q G a i 0 a S a & o     > V <.v.N.j.@.B b T 3.8.",
"3.9.n.U.Q.!.Q.L.l.,.>.>.X.4 # r ! _ Q G p 5 & 9 A l 6 o   o o 2 h B h V X.-.w.0.3.8.",
"4.9.n.U.Q.Q.E.E.E.R.Q.Y.j.B # w P ( R D 0 1 1 6 l 0 & o   o o : > > : 2 X.l.K.n.9.3.",
"3.9.n.U.Q.Q.Q.!.~.~.^.~.N.B # 6 J E S 9 t b V b w 5 O . . . o 3 B V B { ,.K.W.S.y.3.",
"4.9.n.U.Q.Q.E.Q.W.~.^.Q.l.B # ; l D 8 * g -.f.+.e O O X     > Z a.N.N.N.A.T.U.n.9.3.",
"3.8.z.F.U.U.U.U.U.U.U.U.a.b : & 9 0 w e { c.C.;.y % , 1 < > y +.V.Y.U.U.U.U.F.i.9.] ",
"' 4.q.i.n.n.n.n.n.n.n.n.;.g + O * w m @.f.C.C.w.T H [ ....} O.6.z.m.D.m.m.n.n.9.3.' ",
"' ' 4.9.9.9.9.9.9.9.9.9.) s o   X 3 +.N.U.U.B.e.3.7.e.b.b.g.w.q.9.9.9.9.9.9.9.3.' ' ",
"' ' ' 4.3.3.3.4.] 8.8.3.U e o     2 :.Y.Q.J.m.u.9.t.m.J.H.m.n.y.8.3.3.4.4.4.4.' ' ' "
};
