/* XPM */
static char *play_right[] = {
/* columns rows colors chars-per-pixel */
"42 42 174 2 ",
"   c #4F3919",
".  c #543E1D",
"X  c #55401F",
"o  c #554522",
"O  c #594623",
"+  c #544B25",
"@  c #5B4A26",
"#  c #5C4D29",
"$  c #56562B",
"%  c #5C522C",
"&  c #575A2E",
"*  c #575F31",
"=  c #5C5D33",
"-  c #614D2A",
";  c #62512D",
":  c #665631",
">  c #685632",
",  c #625C34",
"<  c #6C5A35",
"1  c #6D5E38",
"2  c #725F39",
"3  c #576333",
"4  c #586837",
"5  c #5F6438",
"6  c #5B6B39",
"7  c #5B733E",
"8  c #656036",
"9  c #686037",
"0  c #61653B",
"q  c #636B3E",
"w  c #73633C",
"e  c #78653F",
"r  c #5D7640",
"t  c #5C7C44",
"y  c #646E41",
"u  c #6F6C40",
"i  c #776740",
"p  c #796740",
"a  c #736B41",
"s  c #7A6B44",
"d  c #657244",
"f  c #6A7245",
"g  c #617B46",
"h  c #6C7648",
"j  c #6A7C4C",
"k  c #717245",
"l  c #787147",
"z  c #72764A",
"x  c #7D7349",
"c  c #727B4D",
"v  c #7A7B4D",
"b  c #7F7F52",
"n  c #83744B",
"m  c #85784F",
"M  c #88784F",
"N  c #837C51",
"B  c #8A7C52",
"V  c #5C8247",
"C  c #5E8549",
"Z  c #5E894C",
"A  c #63824B",
"S  c #6B824D",
"D  c #61894D",
"F  c #72824E",
"G  c #7C804F",
"H  c #6C8553",
"J  c #668D52",
"K  c #6C8954",
"L  c #6F8E59",
"P  c #718750",
"I  c #708B57",
"U  c #708F5A",
"Y  c #7D8C59",
"T  c #669256",
"R  c #689157",
"E  c #6C955A",
"W  c #6B985C",
"Q  c #739257",
"!  c #72935D",
"~  c #7B9059",
"^  c #7C995E",
"/  c #7A9560",
"(  c #749C63",
")  c #7C9963",
"_  c #7F9F68",
"`  c #75A166",
"'  c #76A369",
"]  c #7BA66C",
"[  c #7BA96E",
"{  c #838154",
"}  c #8D8156",
"|  c #8E8559",
" . c #84895A",
".. c #908257",
"X. c #92855A",
"o. c #958A5E",
"O. c #988B5F",
"+. c #938F60",
"@. c #9B8F62",
"#. c #8D9564",
"$. c #839B63",
"%. c #849F69",
"&. c #969162",
"*. c #9C9264",
"=. c #949D69",
"-. c #9B9868",
";. c #A09467",
":. c #A19668",
">. c #A59B6C",
",. c #A89E6F",
"<. c #A99F70",
"1. c #81A76E",
"2. c #88A46C",
"3. c #82A86F",
"4. c #93A26E",
"5. c #9BA46E",
"6. c #95A96F",
"7. c #84AB71",
"8. c #8CAD74",
"9. c #95A671",
"0. c #9BA571",
"q. c #93AD76",
"w. c #8DB076",
"e. c #8DB378",
"r. c #93B077",
"t. c #9EB177",
"y. c #95B37A",
"u. c #9CB57D",
"i. c #9DB97F",
"p. c #A1A06F",
"a. c #A4A371",
"s. c #ABA373",
"d. c #A5AC76",
"f. c #AAAB77",
"g. c #ACAB78",
"h. c #B0A777",
"j. c #B0A877",
"k. c #B4AD7C",
"l. c #A0B177",
"z. c #A2B47C",
"x. c #ABB37C",
"c. c #A2B87F",
"v. c #B5B17E",
"b. c #B8B17F",
"n. c #9DBA80",
"m. c #AEB580",
"M. c #A5BA82",
"N. c #AABD85",
"B. c #B0B782",
"V. c #BAB481",
"C. c #B3BC85",
"Z. c #BEB986",
"A. c #C0BA87",
"S. c #C2BD89",
"D. c #ACC087",
"F. c #ADC188",
"G. c #B5C38B",
"H. c #BBC48D",
"J. c #BEC991",
"K. c #C5C38E",
"L. c #C8C38F",
"P. c #C6C790",
"I. c #C9C691",
"U. c #C4CA92",
"Y. c #CCCC95",
"T. c #CFCF98",
"R. c #D0CD97",
"E. c #D1CF98",
"W. c #CDD199",
"Q. c #D4D29B",
"!. c #D8D69F",
"~. c #D9D7A0",
"^. c #DBD9A1",
"/. c #E3E4AA",
/* pixels */
"' ] ] 1.1.1.1.7.7.%.c # . . X X X X X X X X . X . .   X s =.n.n.8.] 1.1.1.1.1.] ] ' ",
"] ] 1.8.8.8.8.8.2./ h = @ @ # # ; ; # - # ; ; ; ; ; ; < l #.9.q.8.8.8.8.8.8.7.7.] ] ",
"] 3.8.i.N.N.M.0.Y c h y f d f c B B x f a N +.B B B +.B B N  .4.M.N.N.M.N.M.i.8.1.] ",
"1.8.i.G.U.Y.H.a.x , y L ! ! / 4.B.m.9.) $.m.A.S.S.S.S.V.-.a i +.C.U.Y.U.U.U.C.M.8.1.",
"1.8.N.U.Y.L.V.+.a = d I E L / q.C.H.n.] 7.N.J.U.J.W.W.Z.a.N s B j.S.Y.E.!.E.U.M.8.1.",
"1.8.N.U.K.<.} v c h h y y 5 y Y q.n.n.[ [ n.n.M.n.n.n.n.M.>.;.@.B *.V.E.!.Q.U.M.8.1.",
"1.8.N.U.V.B < 0 L ! h % O O ; u / ] ] ] ] ] ] [ [ [ ' [ n.C.V.+.1 s <.Y.Q.!.U.M.8.1.",
"1.8.N.U.V.M # 5 L ( h # - 2 n v j H ( ( ' ' ' ' ' ] ` ' n.N.m.N ; e >.Y.!.Q.P.M.8.1.",
"1.w.N.U.V.M # 5 L ! d % 2 X.s.+.a q H ( ' ] ' ' ' ] ' ' [ n._ h % w <.Y.~.Q.U.M.8.1.",
"1.8.N.U.V.M - 5 H / d % p s.L.>.w % d ( ] ] ' ' ` ` ` ` ' ' ! y % p <.R.~.Q.U.M.8.1.",
"1.w.N.U.V.B # = A K 6 # s h.I.,.2 % d ( [ [ ' ( E R E E W W J y # w ,.R.~.Q.P.M.8.1.",
"1.w.N.U.V.B - * r t 3 % p h.S.,.w % d ` [ ' ' W J D D D D D t & # e ,.Y.~.!.U.M.8.1.",
"1.w.N.U.V.B # $ r t * % i s.L.a.a = g E ( ` W ^ / ! j r r r r + @ i <.R.!.!.U.M.8.1.",
"1.8.N.U.V.B : $ r r * + p <.P.f.F 7 t J T T W 2.t.0.b = $ $ $ o @ i a.Y.!.E.U.M.8.1.",
"1.8.N.U.V.B # $ r t 3 % s s.P.M.$.D C C V V K 9.H.V.B ; o @ + o O i <.R.~.Q.U.M.8.1.",
"1.8.N.U.V.M - & r t 7 3 b f.I.J.t.$.S q 3 3 d =.P.V.B @ o = = $ @ p <.Y.Q.!.U.M.8.1.",
"] 8.N.U.b.M - $ 7 V V 7 ~ x.R.Q.P.x.{ , + + , &.Z.Z.B ; = h H 5 % p <.Y.~.!.U.M.8.] ",
"7.r.D.U.b.{ - $ 7 V V g ~ x.R.^.!.Z...; X o 9 &.S.A.O.i z $._ h % w ,.Y.!.Q.U.N.q.7.",
"t.i.G.W.b.} - & 7 V 7 4 G f.R.^.!.A.B - o = F 5.K.L.k.:.a.N.z.b ; 2 >.Y.~.Q.U.C.c.y.",
"x.F.U.T.b.M - $ 7 7 4 $ e s.Q.^.!.A.X.> = j ] c.U.Q.Y.I.Y.U.Z.| < p ,.Y.!.!.Y.H.C.N.",
"J.U.W.Y.b.{ - $ 7 V 3 # e s.E.^.!.L.>.M { 4.i.G.T.~.^.!.Y.V.<.X.B o.k.R.!.Q.T.U.H.H.",
"Y.Y.Q.Q.b.M - $ 7 V 3 # e s.Q.!.!.E.S.b.v.C.J.W.Q.^.^.!.V...n X.s.V.I.!.Q.!.E.T.T.Y.",
"Q.Q.!.Q.b.X.< = 7 7 * + w :.K.Y.Y.P.P.P.P.K.K.L.P.I.Y.S.>.x e X.V.I.E.Q.Q.Q.Q.Q.!.E.",
"!.!.!.Q.L.j.o.{ q 3 + X ; n O.p.d.l.z.z.d.>.*.*.@.@.*.@.o.X.} X.-.s.S.Y.!.Q.Q.Q.!.!.",
"Q.Q.!.Q.R.Y.b.-.e + X X # ; 9 k P Q ! E H u 1 > < < > 1 B s.m.+.p m s.E.~.!.Q.!.E.!.",
"W.W.Y.Q.R.L.b.>.M w w w > - O & 7 V Z V 7 * % % % % o @ B V.S.o.: w ,.Y.Q.Q.Q.W.T.Y.",
"G.J.U.R.K.a.o.X.*.:.>.>.X.< O & 7 C V V r 6 4 y g y % @ n A.I.@.; 2 >.Y.^.Q.W.U.H.H.",
"c.D.J.Y.b.} < n h.I.Q.Y.s.n # & 7 C Z V C C C R ( I = ; n h.A.o.< p <.Y.~.Q.Y.H.N.M.",
"y.z.G.U.b.n @ e b.!./.!.b.n # & 7 Z Z C C C D W _ U y - 2 o.;.o.B @.v.E.!.Q.U.C.u.r.",
"8.y.D.U.b.n - n v.!./.!.b.n # & 7 Z Z C C C Z W ( U y @ - > s o.s.Z.I.Q.!.!.U.M.r.8.",
"] 8.D.U.b.X.w m s.S.I.S.s.n % * 7 C C C C C Z W ` ! y O X - p ;.S.!.!.Q.E.E.U.M.8.1.",
"1.8.N.U.L.j.@.X.X.o.o.o.{ k 6 7 V C C Z Z C D W ` ! y # > n @.V.Y.!.!.E.!.Q.U.M.8.1.",
"1.8.c.U.R.R.A.:.n > : > 8 q V V V C C Z C C D E ( U 0 ; s <.K.T.E.Q.Q.Q.E.!.U.M.8.1.",
"1.8.c.U.Q.!.Q.v.} w - X + 7 V D Z C r 7 7 7 7 A K j = % n k.Q.^.!.Q.Q.E.!.E.U.M.8.1.",
"1.w.N.U.Q.!.!.P.k.@.e - $ 6 D D D t 6 & $ $ $ = 0 = @ - n V.Q.~.Q.Q.Q.Q.!.E.U.M.8.1.",
"1.w.c.U.Q.Q.Q.Q.Q.A.o.> + 4 t V C r 6 ; - - - # @ O X @ n k.Q.~.Q.Q.Q.Q.E.E.U.M.8.1.",
"1.w.c.U.Q.!.Q.!.!.L.O.> + & 4 6 4 q k m B B n 2 - .   O n k.Q.~.!.E.!.E.!.E.U.M.8.1.",
"1.6.c.P.R.Q.Q.!.!.K.o.: X # # $ + 1 | g.A.Z.g.} - .   # n k.Q.~.!.E.E.E.Q.Q.U.M.8.1.",
"[ 8.i.G.U.U.U.U.W.v.| : X X X # > n a.I.~.Q.L.-.i ; % 9 } k.U.Y.U.U.U.U.P.U.G.M.8.1.",
"] 3.w.z.c.N.c.D.D.t.{ : X X X w B <.S.Q.~.W.H.0.Y c { &.p.m.G.F.M.M.M.M.M.M.i.8.1.] ",
"] ] 3.8.8.8.8.w.w.2.z % X . - n j.Y.Q.!.Y.H.C.y.2.1.t.m.C.m.c.u.8.8.8.8.8.8.8.1.] ] ",
"' ' ] 1.1.1.3.3.[ ^ h % X . - } Z.^.^.Q.Y.H.N.y.8.e.D.J.H.M.u.r.7.1.1.1.1.1.1.] ] ' "
};
