/* XPM */
static char *play_right_1[] = {
/* columns rows colors chars-per-pixel */
"42 42 173 2 ",
"   c #553E1E",
".  c #54411F",
"X  c #554421",
"o  c #594624",
"O  c #564B26",
"+  c #5C4926",
"@  c #554E28",
"#  c #5C4D29",
"$  c #56552B",
"%  c #5D532D",
"&  c #565A2E",
"*  c #5A582E",
"=  c #5E5730",
"-  c #575E31",
";  c #5C5C32",
":  c #614E2A",
">  c #62522D",
",  c #655631",
"<  c #685732",
"1  c #645A33",
"2  c #6B5B35",
"3  c #6E5E38",
"4  c #725F3A",
"5  c #576232",
"6  c #5B6435",
"7  c #556836",
"8  c #596836",
"9  c #5C6C3B",
"0  c #5B743E",
"q  c #626137",
"w  c #62653A",
"e  c #6C633B",
"r  c #636A3D",
"t  c #6B6A3E",
"y  c #74633D",
"u  c #61713F",
"i  c #5B7740",
"p  c #577940",
"a  c #5D7B43",
"s  c #646E41",
"d  c #776740",
"f  c #796740",
"g  c #756B42",
"h  c #7B6C44",
"j  c #667345",
"k  c #6B7245",
"l  c #617C46",
"z  c #6F7749",
"x  c #647E4A",
"c  c #6B7B4C",
"v  c #727245",
"b  c #7C7047",
"n  c #7D7248",
"m  c #747C4D",
"M  c #7A7D50",
"N  c #806E46",
"B  c #83744B",
"V  c #85784E",
"C  c #867C51",
"Z  c #8A7C52",
"A  c #5C8247",
"S  c #5E8549",
"D  c #62834B",
"F  c #6D814D",
"G  c #638A4E",
"H  c #79804F",
"J  c #6B8452",
"K  c #658D51",
"L  c #6E8D58",
"P  c #728452",
"I  c #7A8252",
"U  c #738A56",
"Y  c #728E5A",
"T  c #7D8A59",
"R  c #679256",
"E  c #6B9359",
"W  c #6C9A5D",
"Q  c #71915C",
"!  c #7B945B",
"~  c #6F9A60",
"^  c #739C63",
"/  c #7D9D63",
"(  c #75A166",
")  c #76A369",
"_  c #7AA56B",
"`  c #7CA86E",
"'  c #858356",
"]  c #8C8256",
"[  c #848758",
"{  c #8F8559",
"}  c #8D895B",
"|  c #91855A",
" . c #958A5E",
".. c #82975F",
"X. c #948E61",
"o. c #998F62",
"O. c #8D9C66",
"+. c #809F68",
"@. c #8C9E69",
"#. c #959464",
"$. c #9D9365",
"%. c #9F9668",
"&. c #949C6A",
"*. c #A29769",
"=. c #A69C6D",
"-. c #A89E6F",
";. c #A99F70",
":. c #87A167",
">. c #88A267",
",. c #82A76E",
"<. c #8CA56C",
"1. c #82A86F",
"2. c #8EA86D",
"3. c #93A56D",
"4. c #9FA06F",
"5. c #8EA771",
"6. c #85AB71",
"7. c #8CAD74",
"8. c #92A771",
"9. c #9FA270",
"0. c #91AF76",
"q. c #9BAC76",
"w. c #9EAE78",
"e. c #8CB176",
"r. c #8EB278",
"t. c #93B077",
"y. c #92B279",
"u. c #9CB57C",
"i. c #96B87D",
"p. c #9CB87E",
"a. c #A5A371",
"s. c #ACA474",
"d. c #A2AA76",
"f. c #A8AB77",
"g. c #ACAC79",
"h. c #B1A777",
"j. c #B0A877",
"k. c #B3AC7B",
"l. c #A2B57E",
"z. c #ABB37D",
"x. c #B6B07E",
"c. c #B8B17F",
"v. c #AEB781",
"b. c #A6BA82",
"n. c #AABD84",
"m. c #B4B581",
"M. c #BAB482",
"N. c #B3BB85",
"B. c #BBB985",
"V. c #BABF89",
"C. c #C0BA87",
"Z. c #C2BD89",
"A. c #ACC087",
"S. c #ADC389",
"D. c #B5C38B",
"F. c #BCC58D",
"G. c #BAC88F",
"H. c #BDCA91",
"J. c #C4C28D",
"K. c #C8C48F",
"L. c #C4C690",
"P. c #C9C691",
"I. c #C4CA92",
"U. c #CCCC95",
"Y. c #CFCF98",
"T. c #D0CD97",
"R. c #D1CE98",
"E. c #CDD098",
"W. c #D4D29B",
"Q. c #D9D69F",
"!. c #D9D7A0",
"~. c #DBD9A1",
"^. c #E3E4AA",
/* pixels */
"_ _ _ ,.,.1.,.,.,.,.1.7.r.b.n.H.!.~.~.~.W.I.N.b.1.e.n.H.G.n.b.6.6.,._ ,.,.,.,._ _ _ ",
"_ _ ,.7.7.7.7.7.7.6.,.+.+.5.w.N.V.P.P.P.V.N.b.5.+.,.q.v.N.n.b.b.7.7.7.7.7.7.7.1._ _ ",
"_ 6.7.p.b.b.b.n.n.b.@.M m M ' } o.o.$.$.X.} ' M m m M } 4.v.n.n.n.b.b.n.n.b.p.7.,._ ",
",.6.p.F.I.I.I.U.U.N.X.s % > , , 2 3 3 3 3 , 1 1 , % , 3 Z m.U.Y.I.I.L.I.I.I.F.u.7.` ",
",.7.b.I.E.W.W.U.Z.s.] e = = = 1 3 3 , = 1 3 4 4 y y 3 d Z =.M.P.T.W.W.R.W.R.I.b.7.1.",
",.7.b.I.Q.~.W.B.$.V m m c c c [ o.o.T c M X.*.=.*.*.*.*.X.Z { j.T.~.Q.W.W.R.I.b.7.1.",
"1.7.b.I.R.W.P.;.h 1 j ~ ^ ~ / t.V.V.b.) 6.n.P.P.P.P.Y.V.=.b d X.C.R.W.W.W.W.I.b.7.,.",
",.7.n.P.U.B.;.} g s j c J J P 5.b.S.b.) e.b.D.G.G.H.G.V.d.{ Z Z =.c.J.R.W.W.I.b.7.,.",
"1.7.n.I.B.$.N v P c c w 1 = ; m :.y.6.` ` 7.r.y.y.0.b.7.b.v.;.X.B ] h.Y.!.W.I.b.7.,.",
",.7.n.I.M.Z , ; J ~ j # + : 2 k Y ^ ) _ _ ) _ ) _ ) ) _ e.N.B.Z < y -.U.!.W.I.b.7.,.",
"6.7.n.I.M.B + - D L s # : N { C z c L ^ ) ) ) ) ) ) ) _ 7.b.b.m > 4 =.T.!.W.I.b.7.1.",
"` 7.A.I.M.Z # = i a 6 @ y *.M.$.d ; x ^ ` _ ) ) ) ) ) ) ` ,./ k > y -.U.!.W.I.b.7.,.",
"1.7.n.I.M.C > & i a 5 @ h j.P.=.4 % j ^ ` ` ) ( ^ ~ ^ ~ ^ ~ R s % y ;.T.!.W.I.b.7.,.",
"1.7.n.I.M.Z # $ i a 5 # h s.P.-.4 @ k ^ ` ` ) ~ R K R R ~ R G - # d ;.U.!.R.I.b.7.6.",
"1.7.n.I.M.Z : & i a 5 # f s.P.-.d = j ^ ) ) ^ E R D D S S a a - # d ;.T.!.W.I.b.7.1.",
",.7.n.I.M.V : & 9 a - @ f s.J.a.k 6 a L ~ ~ ^ / @.+.c i 7 s - @ o f ;.U.!.W.I.b.7._ ",
"1.2.n.I.c.V : & 0 a 5 # y s.L.z.U i A K K S E 8.v.f.' , O @ @ . o g s.U.!.W.I.b.7.,.",
"6.t.A.I.c.' : $ 0 a 7 * b f.P.N.>.Y D a i p D 3.J.B.Z : . @ % O o d ;.U.!.W.I.b.7.6.",
"i.l.F.I.c.V : $ 0 S 0 9 ' f.U.I.n.3.I 6 - $ r #.J.B.Z + @ 9 u 1 + d ;.T.!.W.U.D.p.w.",
"n.N.L.T.c.] > & 0 A A A ! z.Y.Q.T.m.] , X X 1 X.Z.M.Z < q P Q r > y -.U.!.W.U.F.N.n.",
"F.G.U.E.C.*.B t u 0 p S / z.Y.~.Q.Z.| :   # s $.Z.Z.*.C [ 5.5.m , y -.T.~.W.E.I.G.F.",
"U.U.E.W.U.C.j.{ e & 7 A / n.Y.~.Q.C.Z : @ 9 U w.L.U.C.k.M.F.m.' < y =.U.!.W.W.U.U.U.",
"W.W.W.W.W.Q.U.s.B < 5 a ! z.Y.~.Q.Z. .y e U 6.n.U.W.W.R.R.P.M.C < y -.U.Q.W.W.W.W.W.",
"Q.Q.W.W.Q.~.Q.Z.=.| t r H g.W.~.Q.P.h.o.#.w.n.H.E.!.~.!.P.h.X.y # y a.Y.~.Q.W.Q.Q.Q.",
"W.Q.W.W.W.W.W.Y.K.k.] 2 y f.T.Q.W.T.K.Z.Z.L.I.Y.W.!.!.R.k.Z < + + d ;.U.!.Q.W.W.W.W.",
"U.U.Y.W.Y.J.B.c.c.h.V > e #.N.J.J.F.F.F.V.B.B.M.M.M.M.M.X.2 o + 3 V *.M.J.U.W.E.Y.U.",
"F.F.U.W.K.=.] V Z B 2 : < H O.3.<.<.8.2.&.} Z V C V Z C 4 + o f o.$.| | -.J.R.U.F.F.",
"b.n.G.I.c.{ 3 : > : : . * u G K G G K G j q , # : , : : + + 2 o.B.h.B 2 Z M.U.H.n.b.",
"i.q.f.f.%.{ B N N y e : $ 0 A S A A A A p 5 & = ; = + X : f | M.U.M.b : b k.U.D.p.t.",
"e.<...y B o.j.x.x.-.V > $ 7 A S D A A A a p i x J c ; # f *.M.U.W.x.b : B M.I.A.t.7.",
"6.:.F , 4 *.P.~.Q.J.| 2 O 7 0 D S S S S S S G E ^ ~ q : f ;.Z.P.Z.s.B y | B.I.n.7.,.",
"2.( u O 2 =.W.^.^.P.o.2 . $ 8 0 A S G S S S G ~ ^ Q s : 2 V  .X. .| | $.h.J.I.b.7.,.",
"6.:.c % 4 *.P.~.!.Z. .<   X % 6 i D S S S S G W ( Q r # + : < , < B *.Z.T.T.I.b.7.,.",
"6.,.T b B o.g.c.k.;.Z :     o ; a S a 0 0 A S W ( L r # : 2 y y y { c.R.~.W.L.b.7.,.",
"6.2.8.9.$.{ B b B h 2 + X . X 6 a a 9 - 5 0 G W ( Y r # 4 | =.a.-.k.J.W.Q.W.I.b.7.1.",
"1.6.b.L.M.| 2 > > > : o X . o ; 0 l 8 > 1 0 S E ^ L w > B h.U.E.T.R.R.R.W.R.I.b.7.1.",
"1.7.n.U.K.-.Z V V h 2 +     X # - 9 v B n s 9 x E J 6 > B c.Q.~.Q.Q.W.W.W.W.L.b.7.,.",
"1.7.n.I.U.J.M.m.M.s.Z >     o X O 2  .g.*.g = 9 D a * % B k.W.Q.W.W.W.W.W.W.I.n.7.,.",
"1.6.l.D.I.I.I.U.U.N.#.e > > , , 2 B s.K.m.] 3 6 0 9 $ # B g.P.E.P.I.I.I.I.I.D.p.7.,.",
"_ 1.r.p.b.n.n.A.A.l.@.I P I [ } o.;.C.T.J.a.[ k w & O + h 9.D.D.n.b.b.b.b.b.u.7.6._ ",
"_ _ 1.7.7.7.7.7.7.7.,.:.:.8.w.v.L.P.R.R.U.V.d.' 1 X   + g &.b.p.r.7.7.7.7.7.6.6._ _ ",
"_ _ _ 1.,.1.6.1.1.1.6.6.r.p.n.H.E.!.!.!.E.H.v.[ ,     O g O.w.y.6.,.,.,.,.,.,._ _ _ "
};
