/* XPM */
static char *play_left[] = {
/* columns rows colors chars-per-pixel */
"42 42 176 2 ",
"   c #4F3818",
".  c #543D1D",
"X  c #55401F",
"o  c #554522",
"O  c #594624",
"+  c #544B25",
"@  c #5B4A27",
"#  c #574F28",
"$  c #5C4D29",
"%  c #56562B",
"&  c #5C522C",
"*  c #575A2E",
"=  c #5F5630",
"-  c #575F31",
";  c #5C5D33",
":  c #614E2A",
">  c #62512D",
",  c #665631",
"<  c #685632",
"1  c #625C34",
"2  c #6B5A35",
"3  c #6D5E38",
"4  c #725E39",
"5  c #576333",
"6  c #5C6235",
"7  c #596837",
"8  c #5F6438",
"9  c #5B6B39",
"0  c #5B733E",
"q  c #656036",
"w  c #62653B",
"e  c #6B633A",
"r  c #646B3E",
"t  c #73623C",
"y  c #78653F",
"u  c #5D7640",
"i  c #5C7C44",
"p  c #646E41",
"a  c #776740",
"s  c #796740",
"d  c #736B42",
"f  c #7B6B43",
"g  c #657244",
"h  c #6A7245",
"j  c #617B46",
"k  c #6B7648",
"l  c #6B7B4C",
"z  c #717245",
"x  c #797147",
"c  c #72764A",
"v  c #7D7349",
"b  c #727A4C",
"n  c #7A7B4D",
"m  c #7E7F52",
"M  c #83744B",
"N  c #86784F",
"B  c #88784F",
"V  c #847E52",
"C  c #8A7C52",
"Z  c #5C8247",
"A  c #5E8549",
"S  c #5E894C",
"D  c #63824B",
"F  c #6B824D",
"G  c #61894D",
"H  c #72824E",
"J  c #7C804F",
"K  c #6C8553",
"L  c #668D52",
"P  c #6C8954",
"I  c #6F8E59",
"U  c #738451",
"Y  c #708B57",
"T  c #728D59",
"R  c #7C8B59",
"E  c #669256",
"W  c #689157",
"Q  c #6C955A",
"!  c #6B985C",
"~  c #739257",
"^  c #72935D",
"/  c #7A915B",
"(  c #7C995E",
")  c #799660",
"_  c #749C63",
"`  c #7C9963",
"'  c #7F9F68",
"]  c #75A166",
"[  c #76A369",
"{  c #7BA66C",
"}  c #7BA96E",
"|  c #858154",
" . c #8E8157",
".. c #8E8559",
"X. c #878A5B",
"o. c #8D8A5C",
"O. c #908257",
"+. c #92855A",
"@. c #958A5E",
"#. c #988B5F",
"$. c #958F60",
"%. c #9B8F62",
"&. c #839B63",
"*. c #8D9A66",
"=. c #839F69",
"-. c #8C9F6B",
";. c #969162",
":. c #9C9264",
">. c #9C9869",
",. c #A19567",
"<. c #A19668",
"1. c #A59B6D",
"2. c #A89E6F",
"3. c #A99F70",
"4. c #82A76E",
"5. c #89A46C",
"6. c #82A86F",
"7. c #97A46F",
"8. c #95A96F",
"9. c #84AB71",
"0. c #8CAD74",
"q. c #95A671",
"w. c #9AA370",
"e. c #93AD75",
"r. c #9DAA75",
"t. c #8CB076",
"y. c #8DB378",
"u. c #93B077",
"i. c #9EB177",
"p. c #95B279",
"a. c #9CB57D",
"s. c #9CB87F",
"d. c #A0A06F",
"f. c #A5A372",
"g. c #ABA373",
"h. c #A5AC76",
"j. c #AAAB77",
"k. c #A3AF79",
"l. c #ACAC79",
"z. c #B0A777",
"x. c #B0A877",
"c. c #B4AD7B",
"v. c #A0B177",
"b. c #A1B47C",
"n. c #ABB37C",
"m. c #B5B17F",
"M. c #B8B17F",
"N. c #9DBA80",
"B. c #AFB681",
"V. c #A5BA82",
"C. c #AABD85",
"Z. c #BAB481",
"A. c #B3BC85",
"S. c #BEB986",
"D. c #C0BA87",
"F. c #C2BD89",
"G. c #ADC087",
"H. c #AAC288",
"J. c #B5C38B",
"K. c #BCC48D",
"L. c #BECA91",
"P. c #C4C38D",
"I. c #C8C38F",
"U. c #C6C790",
"Y. c #CAC691",
"T. c #C4CA92",
"R. c #CCCC95",
"E. c #CFCF98",
"W. c #D0CD97",
"Q. c #D1CF98",
"!. c #CDD199",
"~. c #D4D29B",
"^. c #D8D69F",
"/. c #D9D7A0",
"(. c #DBD9A1",
"). c #E3E4AA",
/* pixels */
"[ { { 4.4.4.4.4.4.4.9.9./ w o   . . . . . X X . . . . X . X $ k *.9.9.} 6.4.} } ' { ",
"{ { 4.0.0.0.0.e.0.0.9.=.R d , > > , > > > $ $ > > > > @ @ @ 1 k ) 4.t.0.0.0.0.6.{ { ",
"{ 6.0.s.V.V.V.C.C.N.-.J b V  .+.C +.+.C V z h c C C n h g p h h l R q.V.C.C.N.t.4.} ",
"4.0.s.J.T.T.T.T.R.A.o.e d :.Z.F.F.D.F.D.k.*.` q.B.B.q.) ^ ) Y g 1 x f.K.E.T.A.N.0.} ",
"4.0.V.U.~.~.Q.R.F.x.+.f V f.L.T.R.T.T.L.C.y.6.N.J.A.e.) I I K p 1 d %.Z.Y.R.T.V.0.4.",
"4.0.V.T.~./.Q.Z.:. .@.,.1.b.V.V.N.V.V.N.p.9.} y.N.e.R p p p g g l l m C 3.P.T.C.0.4.",
"4.0.V.T.~./.R.3.f 3 ..Z.J.a.} { } } } 9.} } [ } { ^ h , @ @ = k ) P e < C S.T.G.0.4.",
"4.0.V.T.~./.W.1.3 , | B.H.y.[ [ [ [ [ _ [ [ ' ! K b v v 4 $ & g _ I 6 : M Z.T.C.0.4.",
"4.0.V.T.~./.W.3.t & c 5.y.} { [ [ [ [ [ [ { _ K p d ;.3.$.4 & h ) I 8 $ C Z.T.C.0.4.",
"4.0.V.T.~./.R.3.s $ p ) [ [ ] ] _ [ [ [ } { _ g & t 3.F.3.s & p ^ K 8 > N Z.T.C.0.} ",
"4.0.V.U.~./.R.3.a = 7 G Q Q Q Q Q Q _ [ } } _ g $ 4 3.R.B.f & p G D ; > B M.T.C.0.4.",
"4.0.V.T.~./.W.3.a $ ; i S L G G G L Q [ } [ _ g & t 1.F.3.s # - D 0 * > C Z.T.V.0.6.",
"4.0.V.U.~./.R.3.a + % 9 u u u F ~ ) _ _ _ ] ! i 6 d 2.U.3.s $ ; i 0 % : C Z.T.C.0.4.",
"6.0.V.T.~./.R.3.a O o % % % ; m w.i.5.Q E E L i u b k.U.3.s $ - i 0 % & C Z.T.C.e.6.",
"4.0.V.T.~./.R.g.a O o @ + o > C M.K.8.L Z Z Z D G ( B.U.g.f & 5 i 0 % > B Z.T.C.0.4.",
"4.0.V.U.~./.R.3.a @ $ 8 ; o @ C S.I.7.r 5 5 r F &.i.K.R.l.b 6 u Z 0 % > C M.T.C.0.{ ",
"{ 0.V.T.~./.R.3.s $ 8 K l = : C Z.D.#.1 + + ; | n.U.~.E.n.R 0 Z Z 0 % > B M.T.H.0.4.",
"9.u.V.T.~./.R.3.a & k ' ` c a %.D.P.%.q o X > ..S.^.(.E.n./ 0 Z Z 0 % > C Z.T.G.e.6.",
"p.V.A.R.~./.R.1.4 > m b.C.f.<.c.I.P.w.H ; o : O.D.^.(.E.j.J 9 0 Z 0 % > B Z.R.J.b.p.",
"V.A.K.E.~./.E.3.a 2 ..S.R.R.Y.Q.Q.U.a.5.F = < O.D.^.(.~.g.y % 7 i 0 % > C M.!.L.G.C.",
"K.K.T.Q.~.^.Q.c.+.V +.3.Z.R.^.(.^.!.J.s.5.| B 1.Y.^.(.W.g.y # 5 i 0 % & V Z.~.T.P.K.",
"E.R.E.~.~.^.Q.Y.S.g.+.M +.Z.~.(.^.~.!.T.J.m.M.F.Q.^.(.W.g.y # 5 D 0 % @ N Z.~.~.!.R.",
"~.~.~.~.~.~.~.~.Y.Z.+.y f 1.F.Y.U.I.I.P.I.U.U.T.R.R.R.P.<.t # * 0 0 ; 2  .S.~./.~.~.",
"^.^.~.~.~.~.Q.F.g.>.+. . .%.:.:.:.:.:.,.>.h.v.b.v.r.d.:.M , X + ; r n @.z.P.~./.^.^.",
"~.~.~.~.~./.E.g.N s #.c.g.C 4 2 2 2 2 2 r H ~ Q ~ U r t , @ X X $ d :.S.R.Q.~.~.~.~.",
"R.E.E.~.~./.E.1.t < #.P.Z.N O o % > & % 5 0 Z S A 0 - # : < t t 4 N <.Z.I.E.~.~.E.E.",
"K.K.T.E.~./.R.1.3 > #.U.S.N @ % r 0 r 7 9 i A A A 0 * X 4 O.<.d.<.%.+.@.3.P.E.T.K.J.",
"V.V.K.E.~./.R.3.s 3 #.S.c.M $ w T ( W A Z A A A A 0 * # M z.Y.~.R.g.M 3 C Z.E.K.C.V.",
"p.s.A.R.~./.W.Z.#.C @.<.+.4 $ r ^ ] ! G A A A S G 0 % $ M M.^.).(.Z.f $ v m.R.J.N.u.",
"0.u.V.T.~.~.Q.Y.S.g.+.f 2 : $ r ^ ] ! G A A A A A 0 % : M M.^.)./.c.f > M Z.T.C.u.0.",
"4.0.V.T.Q.~.~.~.^.P.:.y : O @ r ~ ] ! G A A A A A 0 - * M g.I.I.P.g.N t +.Z.T.C.0.4.",
"{ 0.V.T.~.~.~./.^.W.M.%.M < & r ^ ] ! G A A G A G Z 0 7 y | @.#.+.+.+.%.x.P.T.V.0.4.",
"4.0.V.T.Q.~.~.~.~.Q.Q.P.3.f : w T ] ! G A A A A A A Z i 9 q < > 2 M <.F.R.Q.T.V.0.4.",
"4.0.V.T.~.~.~.~.~.~.(.~.c.M > ; l K j u 0 9 u i A A S A 9 % O : 4  .c.~.(.~.T.V.0.4.",
"{ 0.B.T.~.~.~.~.~.~.(.~.Z.N $ $ 1 w ; * % % * 9 i S S A 9 % $ s :.c.Y.~./.~.T.V.0.4.",
"4.0.V.U.Q.~.~.~.~.~./.~.c.M @ X O @ @ : $ > > 8 i A A i 7 # 2 +.S.~.~.~.~.!.U.V.0.4.",
"6.0.V.T.~.^.~.~.~.~./.~.c.M O     O 4 N C C V x r 7 9 9 * + 2 #.I.(./.~.^.~.U.V.0.6.",
"4.0.V.T.~.Q.E.~.~.~./.~.c.M O   . , C x.D.S.x...e @ + & + o < @.P.^.^.~.~.!.U.V.0.6.",
"4.0.s.A.T.T.T.T.U.T.T.T.l.V 3 , 2 v 3.Y./.^.F.>.d $ O O . X < ..Z.T.T.T.T.T.J.s.0.4.",
"{ 9.0.s.V.V.V.B.V.V.V.V.r.*.X...;.g.S.E./.!.K.r.R p & @ . X > | r.V.H.V.V.V.s.e.4.{ ",
"{ { 9.0.0.0.0.0.0.0.0.0.0.e.k.B.P.Y.Q.~.E.K.C.a.5.T e @ . X & c =.0.e.0.0.0.0.4.{ { ",
"{ [ { 4.4.4.4.4.4.} 4.4.0.a.C.L.!.(.(.~.E.K.V.N.0.` p @ X X & k ` 9.9.4.6.4.{ { { { "
};
