/* XPM */
static char *play_left_2[] = {
/* columns rows colors chars-per-pixel */
"42 42 180 2 ",
"   c #4D3616",
".  c #523C1C",
"X  c #55401F",
"o  c #544421",
"O  c #5A4623",
"+  c #564D26",
"@  c #5A4A26",
"#  c #564D28",
"$  c #5C4D29",
"%  c #56562B",
"&  c #5D522C",
"*  c #56592D",
"=  c #5B582E",
"-  c #5C5730",
";  c #575E31",
":  c #5C5B32",
">  c #614E2B",
",  c #62512D",
"<  c #645530",
"1  c #695732",
"2  c #645A33",
"3  c #6B5B35",
"4  c #6E5E38",
"5  c #715F39",
"6  c #576233",
"7  c #5A6235",
"8  c #576836",
"9  c #596836",
"0  c #5E6539",
"q  c #5C6D3B",
"w  c #57743D",
"e  c #5A743E",
"r  c #626137",
"t  c #62653A",
"y  c #6A633A",
"u  c #646B3D",
"i  c #6A693E",
"p  c #74633D",
"a  c #78653F",
"s  c #60713E",
"d  c #5C7640",
"f  c #5C7C43",
"g  c #636E41",
"h  c #776740",
"j  c #796740",
"k  c #746A41",
"l  c #7B6C44",
"z  c #657344",
"x  c #6A7346",
"c  c #627A46",
"v  c #6C7749",
"b  c #657E4B",
"n  c #6A7C4C",
"m  c #737346",
"M  c #787146",
"N  c #7C7248",
"B  c #737C4D",
"V  c #757F50",
"C  c #7B7E50",
"Z  c #806D46",
"A  c #83744B",
"S  c #86784E",
"D  c #857E52",
"F  c #8A7B51",
"G  c #5B8146",
"H  c #5E8549",
"J  c #5E884B",
"K  c #63854C",
"L  c #6C814D",
"P  c #648A4E",
"I  c #6C8452",
"U  c #648D51",
"Y  c #6C8F54",
"T  c #6E8D58",
"R  c #748653",
"E  c #798352",
"W  c #738A56",
"Q  c #7C8957",
"!  c #728E5A",
"~  c #7E8C5B",
"^  c #679256",
"/  c #6C9256",
"(  c #6B9459",
")  c #6D9B5F",
"_  c #72935D",
"`  c #7B925A",
"'  c #70995E",
"]  c #6F9A60",
"[  c #739660",
"{  c #739C63",
"}  c #7C9D65",
"|  c #75A066",
" . c #76A469",
".. c #7AA56B",
"X. c #7CA86E",
"o. c #838356",
"O. c #8C8256",
"+. c #858759",
"@. c #8D8659",
"#. c #85895A",
"$. c #8D8A5C",
"%. c #92865A",
"&. c #958B5E",
"*. c #948E60",
"=. c #9B8F62",
"-. c #8E9665",
";. c #8D9B66",
":. c #8C9F6B",
">. c #969565",
",. c #9C9265",
"<. c #9B9868",
"1. c #A29669",
"2. c #A59B6D",
"3. c #A89E6F",
"4. c #A99F70",
"5. c #87A167",
"6. c #89A167",
"7. c #82A76E",
"8. c #8CA56C",
"9. c #82A86F",
"0. c #8EA86D",
"q. c #94A46D",
"w. c #8EA770",
"e. c #84AB71",
"r. c #8CAD74",
"t. c #92A670",
"y. c #9BA672",
"u. c #93AD75",
"i. c #9AAD76",
"p. c #9EAF78",
"a. c #8BB176",
"s. c #8EB278",
"d. c #93B077",
"f. c #93B279",
"g. c #9DB57C",
"h. c #96B87D",
"j. c #9CB87E",
"k. c #A4A572",
"l. c #ABA373",
"z. c #A4A875",
"x. c #ACA977",
"c. c #A1AF79",
"v. c #ACAE7A",
"b. c #B1A777",
"n. c #B3AD7B",
"m. c #A2B47D",
"M. c #ABB27C",
"N. c #B7B07E",
"B. c #B8B17F",
"V. c #AEB681",
"C. c #A6BA82",
"Z. c #AABD84",
"A. c #B3B681",
"S. c #BAB482",
"D. c #B3BC85",
"F. c #BDBA86",
"G. c #BBBF89",
"H. c #C0BA87",
"J. c #C2BE8A",
"K. c #ADC087",
"L. c #AEC289",
"P. c #B5C38A",
"I. c #BCC58D",
"U. c #BAC88F",
"Y. c #BCC991",
"T. c #C5C38D",
"R. c #C8C48F",
"E. c #C5C690",
"W. c #CAC691",
"Q. c #C4CA92",
"!. c #CCCC95",
"~. c #CFCF98",
"^. c #D0CD97",
"/. c #D1CE98",
"(. c #CDD098",
"). c #D4D39B",
"_. c #D8D69F",
"`. c #D9D7A0",
"'. c #DBD9A2",
"]. c #E6E7AD",
/* pixels */
"....X.7.7.9.7.7.9.X.7.9.r.h.Z.Y.).'.'.'.(.Q.L.h.a.f.Z.Y.Y.D.C.s.e.X.X.9.7.9.9.......",
"....7.r.r.r.r.r.r.r.r.r.u.u.m.V.I.R.W.R.T.A.m.q.:.9.p.V.C.c.i.u.r.r.r.r.r.r.e.X.....",
"..9.r.j.C.C.C.C.C.C.Z.C.p.-.+.@.&.=.,.,.*.$.+.C v B o.$.@.o.#.:.C.Z.Z.C.Z.C.C.r.7.X.",
"7.r.j.P.Q.Q.Q.Q.Q.Q.!.Q.x.D 3 , 1 4 4 4 3 3 1 < & 2 2 1 < < p ,.D.!.!.E.E.Q.D.C.r.X.",
"7.r.C.Q./.)./.).)./.W.S.3.F p 4 5 5 5 5 3 2 2 2 4 4 2 - - - y O.b.F.!.).`.~.Q.C.r.7.",
"7.r.C.Q.).).).`.`.^.b.%.F &.1.2.2.1.2.<.$.E n o.<.<.#.n b n n B F =.F./.`.`.Q.C.r.7.",
"9.r.C.Q.).).).)./.H.=.p l 2.T.Q.W.R.W.R.V.r...g.G.D.i.} [ { ! g 2 N 4.W.)./.Q.C.r.9.",
"9.r.C.W.).)./.R.n.2.%.S @.z.P.Y.U.U.U.U.C.a.e.h.Z.Z.:.R I I I z t m $.4.F.W.Q.C.r.7.",
"9.r.C.Q.).)./.n.F A %.l.M.g.f.f.s.f.s.s.a.X.X.e.f.8.V 2 : : g x I V x l =.H.Q.Z.r.9.",
"7.r.C.Q.).`.^.3.j 1 @.F.P.h... ... ..... ..... .{ T x 4 > O & x [ ! t < F S.Q.Z.r.9.",
"9.r.C.Q.).`.!.2.p , C p.C.a. . .{ .. . . ...{ T n v D F Z > $ x { T 0 $ S S.E.Z.r.9.",
"7.w.C.Q.).`.^.4.p > x } e.X... . ... . .....{ n : h <.S.1.p & z [ T 2 & S S.Q.Z.r.9.",
"9.r.C.Q.).`.^.4.h $ q T { ] { { ] { { ..X.X.{ z $ 5 4.W.b.j & g / I 7 , F S.Q.Z.r.9.",
"9.r.C.E.).`.!.4.h $ 0 P ^ ( ^ U U ^ ]  .X.X.{ z & 5 4.W.b.j # 0 K b : , F S.Q.Z.r.9.",
"7.r.C.Q.).`.!.4.h # ; d J H H K P Y ] {  . .{ z - h 4.J.l.l & ; f d % , F N.Q.Z.r.7.",
"7.r.C.E.).`.!.4.h @ % ; 8 8 q L -.7.} ] ] ] T f 7 m k.E.l.j # ; d e * $ F S.Q.Z.r.7.",
"X.r.C.Q.)._.!.l.a O o @ + # < o.z.V.0./ ^ J P G d W M.T.l.a $ 6 d d = , F B.Q.Z.r.7.",
"e.u.C.Q.)._.^.4.a @ @ & $ X > F S.I.t.L w w G K Y 5.K.Q.l.M = 9 f e % , F S.Q.K.s.e.",
"g.j.D.!.).`.!.4.a @ = g t # @ F S.T.>.u * * t E q.M.(.!.v.E q e G e % $ F S.Q.P.m.g.",
"C.D.I.~.).`.^.3.p = s _ I t , O.S.J.*.1 o o , O.B.(._.(.M.` G G H e % , F B.~.Q.Z.C.",
"I.T.!.(.).`.~.3.p & B 0.t.#.S 1.T.T.>.i + X > %.T.'.'.^.M.` e f H e % , F S.(.(.T.U.",
"Q./.(.(.).`.!.2.p , o.A.U.B.n.H.!.T.i.! q # > F H._.'.^.x.M 6 9 f e % , F S.).).!.!.",
").).).).).`.!.l.l p %.S.W.^.^./.).Q.K.9.W i 4 &.H._.'./.4.a $ 8 f e % & F S.).`.).).",
"`.).).).).)./.F.2.&.%.=.l.R._.]._.).Y.L.p.>.=.b.W._.'./.l.a + 6 f e % $ A S.).`.)._.",
").).).).).).).^.R.n.%.a S b./._._.).~.R.E.J.J.R.)._._.~.4.p + 6 f e * , S S.).).).`.",
"~.~.~./.).)./.!.T.b.%.l A <.B.S.B.B.B.B.F.G.T.I.I.T.E.F.>.p @ * q s i k =.H.).).!.!.",
"P.I.Q.~.).)./.S.,.%.%.,.=.%.F F O.S O.O.$.6.0.0.6.q.0.6.E 2 X X % i @.3.S.W./.Q.U.P.",
"C.Z.I.~.).`.^.l.l p &.H.n.F , $ > > , , r s P U P P P K s 2 + @ & l <.J.^.).!.U.Z.C.",
"i.j.D.Q.).`.^.2.4 , &.R.S.S @ o = 7 = * 6 w H G G f w q s M o.Z A F ,.b.S.!.Q.P.C.d.",
"r.d.Z.Q.).`.!.2.p , &.R.S.S $ = L L K s w f H G G f 6 = a 1.N.B.n.2.F A ,.J.Q.Z.u.e.",
"7.r.C.Q.).`.^.l.A p &.B.l.Z , u / | / P H H H J G f * > A N.).'.).n.Z < F S.Q.Z.r.7.",
"X.r.C.Q.).)./.H.3.&.&.&.S 3 $ u '  .) P J J J J J w % > S B.'.].'.S.l @ A n.Q.Z.r.7.",
"7.r.C.Q.).)././.W.S.=.p > O @ i ! { ( K H H H H H d * $ A n./.'.).n.Z < S S.Q.Z.r.9.",
"7.r.C.Q.).).).`.`.T.&., . . @ 2 n T K d q e e f H d ; $ j =.N.S.n.2.F A =.H.Q.Z.r.7.",
"9.r.C.Q./.).).`.`.R.&.1 . . O & : : : % % % ; q f d ; @ 1 j A A A F =.l.S.!.Q.C.r.9.",
"7.w.C.Q.).).).)._.J.&.1 o X O @ > $ < , $ > - t c d ; @ O @ @ O $ l 3.W.)./.Q.C.r.9.",
"9.r.C.Q./.).).`.`.J.&., . . O 1 l F F F F F S m u 6 # o . . .   . p 4./.'.`.Q.C.r.7.",
"7.r.C.Q.).).).).).J.&.1 .   @ N 2.S.S.S.S.S.b.%.y @ o o X X . . o j 4.!.`.).Q.C.r.9.",
"7.r.j.P.Q.W.Q.Q.!.S.*.g & $ 4 &.F.`.`.(.`.).E.<.i , < 3 4 1 < & < M k.I.!.!.P.h.r.X.",
"X.9.r.j.C.C.C.Z.C.m.;.E V V $.z.E.`.'.`.`.(.P.y.Q B +.$.$.@.Q V V ~ t.C.C.C.C.r.7...",
"..X.9.r.r.r.r.r.r.r.7.:.:.w.c.D.Q.`.`.).!.Y.D.d.8.7.p.V.V.c.y.w.:.7.w.r.r.r.r.9.X...",
" .....7.9.9.9.9.9.9.e.e.a.h.Z.Y.!.`.).).!.P.Z.g.r.s.Z.Y.U.K.C.f.e.e.X.7.9.7.7......."
};
