/* XPM */
static char *play_right_2[] = {
/* columns rows colors chars-per-pixel */
"42 42 179 2 ",
"   c #4F3818",
".  c #523C1C",
"X  c #54411F",
"o  c #554421",
"O  c #5A4624",
"+  c #554C25",
"@  c #5A4A26",
"#  c #5A4E29",
"$  c #56552B",
"%  c #5B522C",
"&  c #56592D",
"*  c #585A2F",
"=  c #5D5730",
"-  c #575E30",
";  c #5D5C33",
":  c #614E2B",
">  c #62512D",
",  c #645530",
"<  c #685632",
"1  c #635A33",
"2  c #6B5B35",
"3  c #6F5E38",
"4  c #705A35",
"5  c #705E39",
"6  c #576233",
"7  c #5A6435",
"8  c #596836",
"9  c #576B38",
"0  c #5A6B39",
"q  c #5B733E",
"w  c #58783F",
"e  c #616236",
"r  c #62643A",
"t  c #6B653C",
"y  c #636A3D",
"u  c #6C683F",
"i  c #74643D",
"p  c #64703F",
"a  c #5D7640",
"s  c #5C7C43",
"d  c #636E41",
"f  c #776640",
"g  c #756C42",
"h  c #7B6B43",
"j  c #657243",
"k  c #627B46",
"l  c #6B7846",
"z  c #667748",
"x  c #687748",
"c  c #6A7648",
"v  c #6B7D4D",
"b  c #727144",
"n  c #7B7047",
"m  c #727749",
"M  c #7C7449",
"N  c #737C4E",
"B  c #7C794D",
"V  c #7B7E50",
"C  c #82744B",
"Z  c #84794F",
"A  c #88784F",
"S  c #857D52",
"D  c #8A7B52",
"F  c #5C8247",
"G  c #5E8549",
"H  c #5E884B",
"J  c #618047",
"K  c #65844C",
"L  c #6A814F",
"P  c #658A4F",
"I  c #69894F",
"U  c #6C8452",
"Y  c #648D51",
"T  c #6E8E58",
"R  c #738251",
"E  c #7A8353",
"W  c #778D56",
"Q  c #748E5A",
"!  c #7B8E5A",
"~  c #669255",
"^  c #72925D",
"/  c #77995E",
"(  c #6F9C61",
")  c #739660",
"_  c #7A9761",
"`  c #739C63",
"'  c #73A065",
"]  c #76A369",
"[  c #7AA56B",
"{  c #7BA96E",
"}  c #7FAB70",
"|  c #828355",
" . c #8D8256",
".. c #858758",
"X. c #8B8659",
"o. c #84895A",
"O. c #8C8A5C",
"+. c #908257",
"@. c #92865A",
"#. c #958A5D",
"$. c #81905B",
"%. c #948E60",
"&. c #998E61",
"*. c #8C9461",
"=. c #849864",
"-. c #8A9C65",
";. c #929463",
":. c #9C9265",
">. c #949D6B",
",. c #9A9C6B",
"<. c #A09467",
"1. c #A19769",
"2. c #A49A6C",
"3. c #A89E6F",
"4. c #A79F70",
"5. c #A99F70",
"6. c #82A76E",
"7. c #8CA56C",
"8. c #82A86F",
"9. c #8FA86D",
"0. c #92A36B",
"q. c #90A86D",
"w. c #84AA71",
"e. c #8CAD74",
"r. c #92A670",
"t. c #93AD75",
"y. c #98AB75",
"u. c #9EAF78",
"i. c #8CB176",
"p. c #8CB278",
"a. c #93B077",
"s. c #9CB176",
"d. c #93B279",
"f. c #9DB57D",
"g. c #9CB87E",
"h. c #A4A572",
"j. c #ACA473",
"k. c #ABA977",
"l. c #A1AF79",
"z. c #ACAD7A",
"x. c #B1A777",
"c. c #B0A877",
"v. c #B3AC7B",
"b. c #A3B47D",
"n. c #AAB47C",
"m. c #B7B17F",
"M. c #B8B17F",
"N. c #ADB681",
"B. c #A6BA82",
"V. c #AABD85",
"C. c #B1B782",
"Z. c #BAB482",
"A. c #B1BC85",
"S. c #BCBA86",
"D. c #B6BF88",
"F. c #BCBE89",
"G. c #C0BB87",
"H. c #C2BD89",
"J. c #ADC087",
"K. c #AEC188",
"L. c #B4C38B",
"P. c #BCC48D",
"I. c #BAC88F",
"U. c #BDC990",
"Y. c #C4C28D",
"T. c #C8C48F",
"R. c #C7C690",
"E. c #C9C691",
"W. c #C4CA92",
"Q. c #CCCC95",
"!. c #CFCF98",
"~. c #D0CD97",
"^. c #D1CF98",
"/. c #CED199",
"(. c #D4D29B",
"). c #D8D69F",
"_. c #D9D7A0",
"`. c #DCDAA2",
"'. c #E3E4AA",
/* pixels */
"[ [ [ 6.8.8.8.8.} 6.{ 6.e.B.V.U._.`.`.`.(.W.D.B.w.i.V.U.U.A.B.e.w.{ 6.6.8.6.{ { [ [ ",
"[ [ 8.e.e.e.e.e.e.e.e.e.e.r.l.N.F.E.E.R.F.C.B.7.=.6.u.N.N.B.y.e.e.e.e.e.e.e.w.} { [ ",
"[ 8.e.g.B.B.B.B.B.B.V.V.u.-.X.O.&.:.:.:.%.O...V N N V O.o.S o.>.B.V.V.B.V.B.B.w.6.[ ",
"6.e.g.L.R.W.W.R.W.W.Q.E.z.S 2 , 2 2 4 4 2 2 2 = = , 1 2 < = i %.D.W.E.E.E.W.D.B.e.6.",
"8.e.B.R.(.(.^.(.(.^.H.G.2.B ; % = = 1 t 3 1 = 2 3 5 i 3 3 3 h %.x.F.Q.(._./.U.B.e.6.",
"8.e.B.W.(.(.(._.`.Q.Z.D B N v v v N O.:.;.V N E :.2.2.2.2.2.1.D D &.Z.(._._.E.B.r.6.",
"6.e.B.W.^.(.(.(.(.S.&.3 1 v ) ` ` 6.N.F.A.{ ` e.F.R.R.R.R.Q.Z.%.i n 3.Q.).(.W.B.e.6.",
"8.e.B.W.(.).^.Y.Z.:.S d d c U U U Q r.D.V.B.} B.D.I.I.I.I.I.A.1.D D %.4.Z.R.W.B.e.} ",
"6.e.B.W.(._.~.v.D h c R v d 1 = = d ! r.p.} { } p.B.B.p.p.B.w.B.N.1.D C &.G.W.V.e.6.",
"6.e.B.W.^.`.~.3.h > z ) T r # O > t v ) ` ] ] ] ] ` ] ] ' ] { B.P.z.h < D Z.W.V.e.{ ",
"8.e.B.W.(.`.Q.3.i # j ` ^ d @ 4 D D V c v ) ] { ] ] ] ] ] ' { B.B.>.f # C Z.E.V.e.6.",
"8.e.B.R.^.).~.5.f # j ) Q 1 > A k.Z.D 1 d T ` { ] ] ] ] ] ] ] ] w.! 7 > C Z.E.V.e.6.",
"6.e.B.W.(._.Q.5.f # d T I ; , D S.H.D < ; U ` { ] ] ` ( ( ( ( ( ( U ; > A Z.E.V.e.w.",
"8.e.B.W.(._.~.5.f # 8 K k - < D G.G.D < ; U [ } { ` ( ~ ~ ~ ( ~ ~ k - % D Z.W.V.e.6.",
"6.e.B.W.(._.Q.5.f # 7 s a & % D Z.G.&.< ; U ` ] ] ` ( Y Y k s G s a # % D Z.W.V.e.6.",
"[ e.B.R.(._.Q.5.f # 7 s a $ # D Z.G.&.d 0 K ( ( ( ` =.-.Q s 6 q 7 - + % A Z.W.V.e.6.",
"{ 9.b.W.(.).~.3.i # 8 p q & :  .S.E.>.v s G P P P / s.C.,.g % + # @ o : D Z.W.V.w.8.",
"8.a.V.W.).).Q.3.i # 6 s w - 1 +.Z.E.b./ I J s q s W n.T.j.h O + # # o # D Z.Q.V.d.w.",
"s.b.L.Q.(.).Q.3.i % 6 w w q p *.D.Q.P.b.=.l 6 $ & m k.E.x.i o $ d d % > D Z.Q.L.B.s.",
"J.J.P.Q.).).Q.j.i # 6 s G s I 0.P.(.).R.h.n # X + g h.Y.j.h > j ^ U ; > A Z.Q.U.V.B.",
"P.I.W./.(.).~.3.i % 6 s J w J $.S.(.`.).x.C O o $ M k.E.M.#.Z *.t.=.d > C Z./.Q.U.P.",
"Q.Q.Q.(.(.).~.3.i > 6 s w 6 e @.S.(.`.(.x.i @ & c =.B.Q.T.Z.v.S.P.h.i > C C.)./.Q.Q.",
"(.(.).(.(.).Q.3.i # 6 s q & > A M.(.`.~.x.C 4 b _ d.L./.(.(.Q.Q.H.x.C 5 D S.(.)._._.",
").(.(.(.).).~.j.i + 6 s w & : A S.).`.).H.3.#.,.B.L.Q.).`.`.(.S.2.%.#.&.x.H.(._._.^.",
"(.(.(.(.(.).Q.4.i # 6 w w & >  .M.(.).(.^.Y.S.Y.W.Q.(.(.).).Y.<.h C :.S.Q.~.(.).(._.",
"/.Q./.(.(.).Q.v. .u y p 8 # # M k.P.Y.P.P.P.P.F.Z.Z.Z.Z.Z.S.x.@.h C 1.Z.E.~.(.!.Q.Q.",
"P.I.E./.(.(./.T.m.:.C e + X X u $.q.q.7.7.0.7.*.X.D Z D A D D #.&.&.@.@.5.H.^.Q.P.L.",
"b.J.P.Q.(.(.~.(.Q.M.@.t + O > e k P P I P P K a ; : : > : # 3 :.S.x.Z 4 D Z.^.U.V.B.",
"a.f.K.Q.(.(.(.T.M.4.#.A C C C b p 0 w F F F s 9 - & ; ; # o , :.E.Z.C : n Z.Q.L.B.a.",
"q.a.J.W.(.).~.v. .C #.j.M.M.k.@.t & 9 F G G F s a s K U d % < &.H.Z.C : C C.Q.V.e.e.",
"{ i.B.W.(.).~.3.i 2 @.Y.).).E.2.i # 6 F H G G G G Y ` ` L = <  .Z.5.D i D S.W.V.e.6.",
"[ e.n.W.(.).~.1.4 : @.Q.'.'.~.2.i # 6 w H H H H H Y ' [ U 1 : i D %.%.&.x.E.W.B.e.6.",
"8.e.n.W.(.).~.2.i < @.Y.).`.Q.1.3 # 7 F G G G G G Y / ` U 1 @ O < C 3.G.Q.^.W.B.e.8.",
"6.e.B.W.(.).~.v. .C @.j.M.Z.j.+.2 # 7 s F s q q 0 s K U d , o . X i 3.~.`.(.W.B.e.6.",
"8.i.B.W.(.(.^.Y.v.2.#.D C A C 5 : # 0 s s 8 & $ & = ; ; = # o . o i j.~.`.(.W.B.e.6.",
"6.e.B.W.(.(.(.(.(.G.#.2 O O @ O O # 8 s q = > > # > % > : O o . o h 3.~._.^.W.B.e.8.",
"8.e.B.W.(.(.(.).`.E.#.: .   . . . o & 7 d m D D D D D Z i > o . o i 3.~.).^.W.B.e.6.",
"6.e.B.W.^.(.(.).).H.#.< . . X . o X o # g :.Z.Z.Z.Z.S.z.#.i o   o h j.Q.`.^.U.B.e.8.",
"6.e.g.L.W.W.W.Q.Q.S.;.t % > < 2 i 2 , i D v.Q.Q.Q.Q./.Q.j.M < # > M y.U.Q.Q.L.B.e.6.",
"[ 8.t.g.B.B.B.B.B.s.-.E R E o.#.:.:.:.:.j.F.U.L.V.K.U.Q.C.,.| N N o.>.B.B.B.B.e.8.[ ",
"[ [ 8.e.e.e.e.e.e.e.8.-.6.r.l.C.F.E.E.E.E.D.D.B.i.a.V.P.D.B.y.7.6.-.6.e.t.e.e.8.[ [ ",
"[ [ [ 8.8.8.8.8.8.8.w.w.i.g.V.U.(.`.`.`.^.U.B.a.8.e.B.P.D.V.B.d.i.w.8.8.6.6.{ [ [ [ "
};
