/* XPM */
static char *skeleton2[] = {
/* columns rows colors chars-per-pixel */
"42 42 146 2 ",
"   c #4C3516",
".  c #523D1C",
"X  c #54401F",
"o  c #554321",
"O  c #594624",
"+  c #564925",
"@  c #5B4926",
"#  c #5D4D29",
"$  c #56502A",
"%  c #5C532D",
"&  c #5D5730",
"*  c #5C5D34",
"=  c #614E2B",
"-  c #62522E",
";  c #655530",
":  c #685632",
">  c #645A34",
",  c #6B5A35",
"<  c #6D5E38",
"1  c #705F39",
"2  c #5D653A",
"3  c #626037",
"4  c #626239",
"5  c #6C643C",
"6  c #616B3E",
"7  c #6C693F",
"8  c #73633D",
"9  c #78663F",
"0  c #656D41",
"q  c #6A6C41",
"w  c #776740",
"e  c #756941",
"r  c #7C6D45",
"t  c #637747",
"y  c #6B7245",
"u  c #6E7548",
"i  c #677848",
"p  c #6C7C4C",
"a  c #737448",
"s  c #7E7048",
"d  c #717C4D",
"f  c #7B7B4F",
"g  c #747F50",
"h  c #7B7E51",
"j  c #816F47",
"k  c #82744B",
"l  c #85784E",
"z  c #857C51",
"x  c #8A7C52",
"c  c #6C804F",
"v  c #6E8452",
"b  c #6A8955",
"n  c #6C8F59",
"m  c #748151",
"M  c #7C8152",
"N  c #708956",
"B  c #748D5A",
"V  c #7D8A59",
"C  c #72945E",
"Z  c #7D9762",
"A  c #759D65",
"S  c #7E9B65",
"D  c #7F9F68",
"F  c #7BA66C",
"G  c #838356",
"H  c #8D8156",
"J  c #838758",
"K  c #8E8458",
"L  c #8B8B5C",
"P  c #908157",
"I  c #92865A",
"U  c #958A5E",
"Y  c #948E60",
"T  c #9A8E61",
"R  c #809461",
"E  c #8E9463",
"W  c #829D67",
"Q  c #8B9966",
"!  c #859E68",
"~  c #899D68",
"^  c #949162",
"/  c #9D9365",
"(  c #9F9668",
")  c #979A68",
"_  c #A19668",
"`  c #A49C6D",
"'  c #A89F6F",
"]  c #82A76E",
"[  c #89A36D",
"{  c #82A96F",
"}  c #9CA16F",
"|  c #85AA71",
" . c #8CAD74",
".. c #94A771",
"X. c #9EA471",
"o. c #93AD75",
"O. c #9EAC76",
"+. c #9EAE78",
"@. c #8CB076",
"#. c #93B077",
"$. c #93B47A",
"%. c #9CB47C",
"&. c #9DB97F",
"*. c #A4A271",
"=. c #ABA373",
"-. c #A7A876",
";. c #A1AE79",
":. c #ACAC79",
">. c #B4AD7B",
",. c #A2B47D",
"<. c #A9B47E",
"1. c #A2B87F",
"2. c #B5B17E",
"3. c #9FBB81",
"4. c #AEB681",
"5. c #A6BA82",
"6. c #AABC84",
"7. c #B0B782",
"8. c #BAB582",
"9. c #B2BB85",
"0. c #BCB985",
"q. c #B4BF88",
"w. c #BEBD89",
"e. c #C0BA87",
"r. c #C2BE8A",
"t. c #ACC087",
"y. c #ADC389",
"u. c #B4C38A",
"i. c #BBC58D",
"p. c #BECA91",
"a. c #C6C28E",
"s. c #C8C48F",
"d. c #C4C690",
"f. c #CAC691",
"g. c #C4CA92",
"h. c #CCCC95",
"j. c #CECF98",
"k. c #D0CD97",
"l. c #D1CF98",
"z. c #CCD098",
"x. c #D4D39B",
"c. c #D8D69F",
"v. c #D9D7A0",
"b. c #DBDAA2",
"n. c #E0DFA6",
"m. c #E3E3A9",
/* pixels */
"F F F ] ] ] ] ] F | o.%.5.i.p.6.$. .%.y.g.x.v.b.b.x.p.6.%. .{ F { { ] ] { ] ] F F F ",
"F F ]  . . . . . .@.%.5.6.6.4.O.[ ] ..;.7.r.d.f.f.i.7.+.o.o. . . . . . . .o. .{ F F ",
"F {  .&.5.5.5.5.5.5.u.i.7.X.L h d d g G U Y T / / Y K J E %.6.6.5.5.5.5.5.5.&. .{ F ",
"F  .&.u.g.g.g.g.g.g.j.h.8.x < ; % & ; > : , , , , , ; , z :.g.z.g.g.g.f.g.g.u.,. .F ",
"{  .5.g.x.l.x.x.x.l.f.8.` x 8 < 1 1 1 1 1 1 1 1 1 1 < 8 z ' 8.s.l.x.x.l.x.x.g.5. .{ ",
"]  .5.g.x.x.x.c.b.h.=.I x U _ _ _ _ _ _ _ _ _ _ _ _ _ _ U x I =.k.b.c.x.x.x.g.5. .] ",
"]  .5.g.x.x.x.x.x.e.U 8 r ' a.h.k.h.f.f.h.f.h.h.f.h.h.a.' r 9 U r.l.x.x.x.l.g.5. .{ ",
"{  .5.d.x.x.l.a.>.` K l I 8.x.b.v.x.b.c.x.b.b.x.c.c.b.c.8.U l I ` >.a.l.x.x.g.5. .] ",
"]  .5.g.x.c.k.>.x k I =.0.f.x.c.c.x.c.x.x.c.x.c.c.x.c.x.h.0.=.I k H >.l.x.x.g.1. .{ ",
"{  .5.g.x.v.k.` w : I r.x.c.x.x.x.x.x.x.x.x.x.x.x.x.z.h.h.z.9.K - 9 ' h.c.x.g.5. .F ",
"{  .5.g.x.v.h.` 1 ; I a.v.v.x.x.x.x.x.x.x.x.x.x.x.h.i.t.y.y.,.f # < _ k.c.c.g.5. .{ ",
"{  .5.d.x.c.k.' 8 , I r.c.c.x.x.x.l.x.x.x.x.x.c.x.g.5.| F | S q - 9 ' h.c.x.g.5. .] ",
"]  .5.g.x.v.h.` 8 : I a.c.c.x.x.x.x.h.p.p.p.p.z.x.i...C n b v y e H >.l.c.x.g.5. .{ ",
"{  .5.g.x.v.h.' w : I r.c.c.x.x.x.l.u.1.$.$.3.u.h.0.Y q * 2 7 z ` >.a.x.x.x.g.5. .] ",
"]  .5.g.x.v.h.' 8 , I r.x.c.x.x.z.a.&.] A A ] 5.g.0.H - o + 5 U r.x.x.x.x.x.g.5. .] ",
"]  .5.d.x.v.k.` 9 : I r.c.c.l.h.i.,.Q c t t m X.a.8.l + o % u } h.b.c.x.x.l.g.1. .] ",
"F  .5.g.l.b.k.' w : I a.c.v.z.p.&.S p 4 $ % 4 ^ r.0.x = % t Z ,.h.c.c.x.x.x.g.1. .] ",
"| o.5.g.x.c.h.` 8 : I r.v.b.z.y.@.C 6 # X + < ^ r.e.U w a Z o.,.8.a.h.x.x.x.g.6.#.{ ",
"%.&.q.h.x.b.h.` 1 : I a.b.n.z.u. .n 2 + + * p X.a.f.>.` *.5.5.} U _ 0.l.x.x.g.u.,.%.",
"6.9.i.h.x.v.h.' w , I r.x.x.h.u.@.C 0 % > p F 3.g.l.h.f.f.h.w.U 8 r ' k.c.x.h.i.6.6.",
"i.p.g.l.x.c.h.>.I l I ` =.=.:.-.%...L f G ~ 3.u.z.z.h.p.z.v.a.K - 8 ' l.c.c.z.g.a.i.",
"h.h.h.x.x.x.x.f.8.' I k w w j ^ 4.i.0.>.>.i.g.z.x.h.y.5.y.z.a.U : 8 ' l.b.x.x.z.z.h.",
"x.x.x.x.x.x.x.c.c.r./ 8 = = 1 x >.s.g.h.f.d.d.f.h.u.o.] o.u.0.K - 8 ( r.l.x.x.x.x.x.",
"c.x.c.x.x.c.v.b.b.l.>.U x x P I T ` <.6.4.*.` -.5.%.R p Z +.+.G - = r T >.h.c.c.c.c.",
"x.x.c.x.x.x.x.x.x.l.f.e.e.e.8.T r e V ] R a 7 M ! W u 3 y Z D p % O = 8 U e.c.c.x.x.",
"h.j.z.x.h.a.0.2.8.8.f.x.b.b.h._ < # 6 v i & + 4 c p > + * p N d 8 1 , 9 x =.0.s.h.j.",
"i.i.h.x.a.` x k k I :.l.n.n.l.` 1 o $ * & # o # * * + X + * q G / ` ` ` U x I } q.i.",
"5.6.i.g.8.I , = = 8 T e.x.v.f.` 8 O + # # + O # # % # # O O , U 0.k.h.0._ 9 8 L ,.6.",
"#.%.O.*./ I k j k l I ` 8.f.f._ 8 @ , j 9 - @ : r k l k < # : T f.x.e.=.U l l E O.%.",
" .[ V r k T :.8.>.=.I k I >.f.` 5 : x ' T 8 = j _ >.8.>.I , : U a.a.T j H ` -.%. . .",
"| ] m 7 j / 0.h.x.r.I , 9 =.a.` 8 , T 0.*.e : x e.x.b.h.` 9 : x >.=.l 9 K 8.g.5. .] ",
"{ ] Q U x I U >.h.f.I - 1 ' f.' 8 > J +.) 5 : x a.n.m.x.' 8 @ 1 x I I U :.s.h.6. .F ",
"]  .,.9.=.x 9 H 0.r.U : w =.a.` 8 % p W B 4 - H e.c.b.l.=.w @ O : k ` e.k.k.d.5. .] ",
"] o.6.h.r./ s z ` =.I k x _ =.P , ; g [ ~ h k I =.8.h.h.>.I w 1 8 H >.l.b.x.g.5. .] ",
"F  .6.h.f.8.' U l l I ` ` I k < = : L 7.i.2.' U x U >.h.s.>.=.` ' >.a.x.c.x.g.5. .] ",
"{  .5.g.x.x.f.' r 9 / 0.>.x = . X , U e.h.h.w.U 1 9 _ f.x.l.h.h.h.l.l.x.x.x.g.5. .] ",
"{  .5.g.c.b.x.8.U I >.h.2.k o   . ; j / :.q.5.J - : / f.b.b.c.b.c.c.x.x.x.x.g.5.o.] ",
"{  .5.a.x.x.x.d.e.0.d.j.>.l O . . + = 1 f ! [ g % , ( f.c.c.x.x.x.x.x.x.x.x.g.5. .{ ",
"{  .&.i.g.g.g.g.g.g.h.h.<.H < - & - ; : q m N u 8 k ' a.z.g.g.g.g.g.d.g.d.g.u.&. .F ",
"F {  .&.5.5.5.5.6.6.y.u.2.*.Y G m d M G h y y f Y *.2.u.y.6.5.5.5.5.5.5.5.5.,.@.| F ",
"F F |  . . . . . .#.%.,.6.9.4.+.[ ] ..;.^ q , H >.d.i.6.&.o. .|  . . . . . . .F F F ",
"F F F ] ] ] | F F | o.&.6.i.p.6.$.@.3.6.) 8 ; x a.x.p.5.#. .] F { ] ] { ] { F F F F "
};
