/* XPM */
static char *tresure[] = {
/* columns rows colors chars-per-pixel */
"42 40 173 2 ",
"   c #533E1D",
".  c #56401F",
"X  c #574220",
"o  c #584422",
"O  c #574A25",
"+  c #594B26",
"@  c #5B4D29",
"#  c #4F582A",
"$  c #57542B",
"%  c #5B532C",
"&  c #545D2F",
"*  c #59592E",
"=  c #5D5630",
"-  c #5E5B32",
";  c #614D2A",
":  c #64532E",
">  c #675531",
",  c #685631",
"<  c #615E36",
"1  c #6D5B36",
"2  c #6F5E38",
"3  c #715D38",
"4  c #5B6435",
"5  c #5B6638",
"6  c #5C6C3A",
"7  c #5C723D",
"8  c #606037",
"9  c #626339",
"0  c #6D633B",
"q  c #636A3E",
"w  c #69693F",
"e  c #73633D",
"r  c #70683F",
"t  c #5D7640",
"y  c #567F43",
"u  c #5D7C44",
"i  c #656D41",
"p  c #6D6C41",
"a  c #776A42",
"s  c #7B6B43",
"d  c #667244",
"f  c #6B7344",
"g  c #657A45",
"h  c #6D7648",
"j  c #677849",
"k  c #697949",
"l  c #777147",
"z  c #7A7046",
"x  c #737549",
"c  c #7C7349",
"v  c #73784B",
"b  c #7F7D51",
"n  c #82744B",
"m  c #86784E",
"M  c #857F53",
"N  c #897C52",
"B  c #578044",
"V  c #5B8246",
"C  c #5E8549",
"Z  c #5F894C",
"A  c #61854A",
"S  c #62894D",
"D  c #678650",
"F  c #6C8552",
"G  c #648D52",
"H  c #6C8B54",
"J  c #6E8E59",
"K  c #708754",
"L  c #7C8153",
"P  c #708A56",
"I  c #728E5A",
"U  c #7C8D5B",
"Y  c #679256",
"T  c #6B9256",
"R  c #6B9459",
"E  c #6D995E",
"W  c #72945C",
"Q  c #79975C",
"!  c #76995D",
"~  c #7C9A5F",
"^  c #6F9B60",
"/  c #7A9661",
"(  c #729C62",
")  c #7C9C62",
"_  c #75A066",
"`  c #7BA066",
"'  c #76A469",
"]  c #7AA56B",
"[  c #7AA96E",
"{  c #848255",
"}  c #8C8257",
"|  c #8D8458",
" . c #898D5B",
".. c #908257",
"X. c #91855A",
"o. c #958A5E",
"O. c #988B5F",
"+. c #978D60",
"@. c #998E61",
"#. c #819662",
"$. c #8A9662",
"%. c #819C62",
"&. c #8B9A65",
"*. c #809E68",
"=. c #9C9264",
"-. c #949867",
";. c #959C69",
":. c #9F9969",
">. c #A19668",
",. c #A49A6C",
"<. c #A79F70",
"1. c #86A066",
"2. c #88A066",
"3. c #84A46B",
"4. c #8DA36C",
"5. c #82A86F",
"6. c #8AA96F",
"7. c #92A46D",
"8. c #94A86F",
"9. c #84AB71",
"0. c #8BAD73",
"q. c #93AD74",
"w. c #9DAB74",
"e. c #8CB076",
"r. c #8EB57A",
"t. c #92B077",
"y. c #9BB177",
"u. c #95B47B",
"i. c #9CB57C",
"p. c #A0A36F",
"a. c #A5A473",
"s. c #ACA574",
"d. c #ADA877",
"f. c #A3AE79",
"g. c #ADA978",
"h. c #B0A777",
"j. c #B0A877",
"k. c #B3AB7A",
"l. c #A5B47C",
"z. c #A9B57E",
"x. c #A8B87F",
"c. c #B5B17E",
"v. c #B8B27F",
"b. c #9FBB81",
"n. c #A1BA81",
"m. c #ABBD85",
"M. c #BBB582",
"N. c #B3BD85",
"B. c #BDBA86",
"V. c #C1BA87",
"C. c #C2BD89",
"Z. c #ACC087",
"A. c #ADC188",
"S. c #B1C087",
"D. c #B3C38A",
"F. c #BBC48C",
"G. c #B1C88E",
"H. c #BFC890",
"J. c #C6C38E",
"K. c #C8C48F",
"L. c #C4C790",
"P. c #CAC691",
"I. c #C4CA92",
"U. c #CACC95",
"Y. c #CECF98",
"T. c #D1CF98",
"R. c #CED199",
"E. c #D4D29B",
"W. c #D9D69F",
"Q. c #DAD7A0",
"!. c #DBD9A1",
"~. c #E0DEA5",
"^. c #D4D29B",
/* pixels */
"^.^.^.        X o o ^.^.^.^.^.o o X .     . X o o ^.^.^.^.^.o X .     . . ^.^.^.^.^.",
"^.^.: > > > : @ o X ^.^.^.^.^.X o ; > , , ; @ X X ^.^.^.^.o X + : , : % % ^.^.^.^.^.",
"^.: n X.o.O.N e @ .   ^.^.      ; s | @.o.m 3 o     ^.^.    X > n N M h i - ^.^.^.^.",
"  > X.M.P.P.v.N ; . o o o o X X 1 @.V.P.P.k.n @ X o o o o X X e >.B.n.] k 9 o o o o ",
"  , O.P.~.~.K.X.> @ 3 s c s e 9 x a.T.~.!.B.N ; ; a a 0 < - < M M.U.G.9.P i o X o o ",
"  , o.P.!.!.J.| > 3 @.k.k.j.;.U #.m.T.!.!.B.m ; a :.a.#.P F F &.N.U.G.9.P < o X o o ",
"  > o.K.!.!.C.} > s g.U.E.I.m.9.6.m.Y.!.E.M.n > n M.F.b.[ ( ' e.F.U.m.9.F - o o o o ",
"  , o.K.!.!.C.N : p 7.A.A.m.u.9.0.m.T.!.W.M.n : l w.n.r.[ ' [ u.F.Y.A.9.F i o X o o ",
"  > o.J.!.!.J.} : 9 U 5.9.9.[ ' 6.Z.E.!.W.v.m : q / [ [ [ ( ] e.F.U.A.9.H < o X o o ",
"  > o.K.!.W.F.o.9 6 S E ^ E E E 3.x.E.W.W.B.} 8 i D ^ ^ ( E ^ 0.N.U.A.9.J 9 o X X o ",
"  , o.J.!.W.J.;.g t A G G G Z G ! x.Y.W.W.J.$.g y C G G G S D *.N.U.D.9.P 5 o X o o ",
"  , o.K.!.W.H.8.G V A S S S Z Z Q l.U.E.U.N.2.S y S D S S Z S ~ m.H.m.5.P - o X o o ",
"  > o.K.W.W.L.8.G S Y R R R Y Y ` x.U.U.m.t.Q S S Y R R R R R ) t.b.t.[ P < o X o o ",
"  > o.J.!.W.L.8.G G E _ _ _ _ _ 6.Z.U.F.u.] Y S Y ( _ _ _ ( _ ' ] 5.5.] P 9 o X X o ",
"  > o.K.!.W.K.8.H S R ! _ ( E ^ 3.Z.U.I.i.6.W S G E ( ( ( ( ( ' 9.t.e.] J 9 o X o o ",
"  > o.J.!.W.J.8.H C S Y Y S Y S ! x.U.R.I.x.%.S A S G Y G G G ) b.N.b.9.H < o . o o ",
". , o.J.!.!.L.8.G B C A A A V C Q l.U.W.R.S.1.A V C A C C C C Q l.H.m.9.P < o X o o ",
". , o.J.!.W.L.8.S y y B B B y u T f.U.U.D.y.! C B B B B B B B T q.n.u.[ H 9 o X o o ",
". : o.J.W.W.L.8.T V C C A A A V Q z.U.F.u.] T A C A A A A C A G ( 9.[ ] H 9 o X o o ",
". : o.J.!.W.I.l.2.%.%.~ %.%.%.%.7.x.U.H.i.q.2.1.%.%.%.%.%.%.1.%.) ' [ ] P 9 o o o o ",
". : o.J.Q.W.Y.L.N.N.c.N.x.N.x.x.F.L.T.U.L.F.D.N.N.N.N.N.N.N.N.x.0.' ' ' P 9 o X o o ",
". : o.J.Q.W.E.T.T.E.E.E.E.E.W.E.E.E.E.T.U.I.I.I.U.I.U.U.U.U.U.D.u.] ' ' P 9 o X X o ",
". > O.P.!.!.W.!.!.!.!.!.W.W.W.W.W.W.W.I.G.Z.m.Z.m.m.Z.Z.Z.Z.Z.b.e.[ [ [ I 9 o X o o ",
". > o.J.E.E.E.E.E.T.E.T.E.E.E.E.E.E.U.F.t.5.5.5.5.5.5.5.5.5.5.5.] ' ' ] H 9 O X o o ",
". ; n p.j.k.j.j.h.h.h.k.J.T.W.E.P.V.d.-.U H ^ _ ' ' ( W F F F F F K K H h - o X o o ",
". . 1 e e z s s n r e } h.P.W.W.C.>.n 0 < i F ' ' ' W g 8 - - 8 < 4 9 8 > + o X o o ",
". . : , > > ; @ + O + r >.P.W.W.V.| % O o < F ( [ [ W q + o + $ O @ + + o X o o o X ",
". : e X.} v 7 4 4 & & w p.T.~.!.C. .5 # - 6 H ` [ [ W 9 o O * 4 4 - $ X X X o o o o ",
"  : ..v.x.6.W S C 7 B K w.I.W.W.F.7.A 7 u S R ' [ ] W 9 + * 7 V V t 4 + X X o o o o ",
". : m s.f.q.' R S V C G &.s.M.F.S.y.1.! Y R _ _ ( I k 9 - 6 V C u 7 - + X X o o o o ",
". ; , r L ) ' R S V C A x s { 4.i.m.S.i.3._ ' ` K q 8 5 7 u A u 6 % + X X X o o o o ",
". . @ , w P ! T S A Z u 4 % 9 H 3.z.B.l.*.( ( W j < * 6 A C u 7 * o + @ @ + o X o o ",
". ; e } { x d A R Y S u 6 4 4 6 h } o.{ v f d d q 4 5 u A 7 6 * . . 4 q w % o X o o ",
". > X.v.s.s < j ( W G Z V u 6 - @ : : : % % @ % 4 7 V A V 6 * . . : q I F < o X o o ",
". , =.P.V.O.c v K H Y G G Z t 4 $ $ $ $ % % % * 5 V S Z C 4 + ; e c #.` W 9 o . o o ",
"  > =.P.T.V.s.M w d J E Y Z u 7 7 7 7 7 7 7 7 7 u C Z Z C 4 + 1 X.g.i.5.I 9 + . o o ",
"  > X.M.P.K.k.N : < F W G V u u u u u u u u u g V 7 u A 7 4 % e >.B.x.` F 8 O . o o ",
"^.: n X.O.@...e o % 9 d q 5 4 4 5 5 5 5 5 5 5 4 5 5 4 5 4 $ . > m X.{ h w * ^.^.^.^.",
"^.^.: , , > : @ o + @ @ @ + + + + + + + + O @ + @ @ + @ . @ . ; ; : : @ + ^.^.^.^.^.",
"^.^.^.        X X X X . X X X X X . o X X X o X . . . . . . . + . . . . . ^.^.^.^.^."
};
