/* XPM */
static char *walll[] = {
/* columns rows colors chars-per-pixel */
"42 42 132 2 ",
"   c #553C1C",
".  c #57401F",
"X  c #564422",
"o  c #5A4624",
"O  c #574925",
"+  c #5B4926",
"@  c #574E28",
"#  c #5B4E29",
"$  c #5B522C",
"%  c #5E5730",
"&  c #5E5B32",
"*  c #624D2A",
"=  c #65532F",
"-  c #655530",
";  c #6A5631",
":  c #625D35",
">  c #6D5D37",
",  c #6F5E38",
"<  c #725E39",
"1  c #5D6336",
"2  c #5D6638",
"3  c #5D6B3B",
"4  c #5D723E",
"5  c #656037",
"6  c #616238",
"7  c #6D663C",
"8  c #636C3D",
"9  c #6E693E",
"0  c #61703F",
"q  c #5E7A43",
"w  c #656E42",
"e  c #6A6F42",
"r  c #7B6B43",
"t  c #667244",
"y  c #697344",
"u  c #627B46",
"i  c #637C48",
"p  c #6A7D4C",
"a  c #787749",
"s  c #7A784B",
"d  c #806F47",
"f  c #85744C",
"g  c #85784E",
"h  c #867E52",
"j  c #8C7E53",
"k  c #578144",
"l  c #5A8246",
"z  c #5E8649",
"x  c #5F894C",
"c  c #64844B",
"v  c #69814C",
"b  c #61894E",
"n  c #6A8450",
"m  c #648D52",
"M  c #6A8C52",
"N  c #6F8D58",
"B  c #768250",
"V  c #718F5A",
"C  c #7C8D5A",
"Z  c #669055",
"A  c #6B9155",
"S  c #679458",
"D  c #6A9459",
"F  c #6E995E",
"G  c #719156",
"H  c #72935C",
"J  c #78965B",
"K  c #71985F",
"L  c #6E9C61",
"P  c #739C63",
"I  c #7B9A62",
"U  c #74A167",
"Y  c #76A46A",
"T  c #79A56B",
"R  c #7AA96E",
"E  c #898356",
"W  c #838D5A",
"Q  c #8A8B5B",
"!  c #94895D",
"~  c #998B5F",
"^  c #80935C",
"/  c #889760",
"(  c #879E64",
")  c #899E65",
"_  c #8D9E69",
"`  c #9D9466",
"'  c #9C9E6C",
"]  c #A39769",
"[  c #A79C6D",
"{  c #81A065",
"}  c #89A167",
"|  c #83A46B",
" . c #8BA369",
".. c #81A96F",
"X. c #85AB72",
"o. c #8CAE75",
"O. c #96A970",
"+. c #9AAC73",
"@. c #8EB077",
"#. c #96B076",
"$. c #91B379",
"%. c #9DB57D",
"&. c #A6A06F",
"*. c #ADA574",
"=. c #A0AD76",
"-. c #ADAE7A",
";. c #A4B67E",
":. c #ADB47D",
">. c #AEB87F",
",. c #9FBA80",
"<. c #A5BB82",
"1. c #ABBC84",
"2. c #BAB582",
"3. c #B0BA81",
"4. c #BFB885",
"5. c #B9BF89",
"6. c #C1B986",
"7. c #ABC087",
"8. c #ACC288",
"9. c #B3C189",
"0. c #BDC38C",
"q. c #BEC790",
"w. c #BFC890",
"e. c #C5C38E",
"r. c #C8C691",
"t. c #C4CA92",
"y. c #CACC95",
"u. c #CFCF98",
"i. c #D0CC96",
"p. c #D5D29B",
"a. c #D8D59E",
"s. c #E1DCA4",
/* pixels */
"z x m D P Y T T I R Y P Y Y P Y Y P U U U U U I R Y P P Z m m Z L P Y Y P T Y T Y T ",
"l z m D P Y T Y T T T T T T T T R T T R R R R T T T P L m b m D P T R T T T R I T P ",
"4 q c A P Y R T T R ..X.o.@.@.@.o.@.@.o.@.X.o.X.X.R U D b u c V T o.@.@.o...R R T T ",
"1 2 4 v P Y R R R ..$.<.<.1.<.1.<.1.<.1.1.1.1.,.$.X.T N u 3 y W O.,.1.1.<.,.@...T T ",
"O % 2 p H I R R R o.,.1.t.t.t.t.w.t.t.t.t.t.t.9.,.o.I n 8 & e Q -.q.t.t.q.1.,.X.T P ",
". o % w M P P P P  .%.5.t.y.t.r.t.t.t.t.r.t.t.9.,.| P i & $ < ! 2.u.a.a.u.q.<.o.T Y ",
"  . # & y p p n n C _ =.:.3.1.3.1.1.3.3.1.3.:.=._ C p 2 # o < ! 6.a.s.s.a.t.1.@.R P ",
"  . o % : 6 6 & 6 y s J ( )  .) _ _ ( ( _ } ( ^ s e : # o * < ~ 5.a.s.s.a.y.<.@.T Y ",
"o o + # # # # # $ : w p n Z M m M M M M M A M i w & # X X o 7 ! 2.y.a.p.i.q.<.X.T P ",
"% % % % % % % % % & q q b x x z z x x x b b b c w 2 % @ @ % e j &.2.4.4.2.-.O.| P P ",
"y y t y w t t t t y p Z m b z z z x Z Z D S Z m c i w w 2 1 7 a j ! ~ ~ ! E W V D D ",
"P V V V V V V V V V L P L L m x x Z F F P U P K L N V n q q w 8 e < < < , e y v m m ",
"P Y Y P T Y P T Y Y Y T P L m b b D U U T T U T U T U K S b q 2 % O o + # : 8 u b m ",
"T T Y R Y T R Y T T T T P L m b b D U U Y T T Y R R Y U L D i 2 @ X X @ & 3 u b m m ",
"T Y Y Y Y Y Y Y Y T Y Y P L m b b D K U T Y U U T R Y Y U P n 3 $ o $ 2 i n M H F F ",
"T T T T R T R T T T R T T L m b b D P R T R T T T T T Y Y P N t % $ : y I P Y U U U ",
"o.@.@.@.@.@.o.@.@.@.@.$.X.P n i c J | o.@.@.o.X.R R T T T U H y 5 & 0 J  .X.o.R T Y ",
"7.7.7.7.1.1.1.1.1.1.8.1.<._ B w y ^ +.1.8.7.<.,.o.X.Y T T T L n 0 8 B _ %.<.$.X.T T ",
"w.t.t.t.t.t.t.t.t.t.y.t.5.' s > 9 Q :.0.y.y.w.9.%.X.R Y Y T L n c i ^ =.9.9.,.X.T U ",
"e.e.e.e.t.t.t.t.t.t.y.r.2.` r = > j *.e.u.p.u.w.<.o.T Y Y Y P Z b M } >.t.t.1.X.T U ",
"*.*.*.-.:.>.>.>.1.3.-.*.] j < * = r ~ *.6.i.p.t.1.@.T Y Y T P S b A } 3.t.t.1.o.R U ",
"f g g W ^ }  . ._ / Q h d < * o * ; r j [ 6.u.y.8.@.T R T Y P Z b A } >.y.t.1.@.R U ",
"= = 5 0 v M A Z M v w : = * + o o + * < j *.6.t.1.@.T Y Y U P Z b M { >.t.t.1.@.T U ",
"  . @ 1 q x m m m q t & % % % % $ X X # r ~ *.:.+.T P L P L L Z b M } >.t.t.<.o.T U ",
"    @ 2 c Z D S Z m p t t t t t 6 % O o ; d j Q W H D D D A Z x z M } >.t.t.1.@.T U ",
"  . $ 8 n P U U P P L V V V L H n w $ o * * < e y v b m m b x z z M } >.t.t.<.o.T U ",
"X @ & y H U Y Y P T T P Y Y R P N t - o o * - 5 t i x m m b x l z M } :.t.t.1.o.T U ",
"$ 1 3 c F Y R Y T T R T Y R R Y P t # * * , r s B M m m m m m x x M  .3.r.t.1.@.T U ",
"3 4 u M H U Y Y T Y T T T R R T V w % # < j ` ' _ I P L F L D m x A } 3.y.t.1.o.T Y ",
"q q v D P T R T R I T Y T R R T V w % - d ] 2.5.<.X.P P U P L m x M ( 1.t.w.1.@.T U ",
"z z M K | X.@.o.o.X...R Y T R P D t & : h *.t.t.1.@.T Y T Y P m q v / +.5.5.,.X.T U ",
"l x A | #.<.1.1.<.,.@.R T T R I L c w y Q -.y.y.8.$.T Y T Y L p w w p _ #.,.@.X.T Y ",
"k b G  .>.t.t.t.q.9.%.X.R U R Y K m c v ^ >.t.t.7.@.T U Y Y H y 1 : e C | o...R T I ",
"k x J #.5.i.a.a.u.q.<.o.R U Y Y L Z b M } >.t.t.7.@.T T T Y V t % $ 5 n P R R T T R ",
"k b J +.0.p.s.s.a.y.1.o.R T Y R U S b A } >.y.t.1.o.T U Y Y V e % # 6 p P Y R T T T ",
"k b J +.e.p.s.s.a.t.1.@.T U R Y U D m A } >.r.t.1.@.R T T U V e % # 6 n P R R T T T ",
"k c J O.9.i.p.a.i.t.;.o.T U Y Y K S b M } :.t.w.7.@.R U R Y V t % # : p P T Y Y Y T ",
"k z G } :.5.0.e.9.1.#.| P K H G n c q c ^ :.t.t.1.o.R Y T Y V t - # : t n P P P P P ",
"l z M J } O.+.+.O. .{ K A b v y 0 6 6 8 Q -.t.t.7.o.T U T U H t % + # 6 w p n M S L ",
"l b b M G G J J J J A M b u 8 & $ @ @ : E *.e.t.7.@.T U U T H t % + X # % : t z m x ",
"z z z c z b b x c b z z l 4 & + .   . = f &.e.t.7.@.R Y T Y J y % X . . O $ 2 q q x ",
"z z z l k k k k k k z l l 3 % .     . = f *.e.t.7.@.T Y Y U G 0 & X     X @ & q l x "
};
