/* XPM */
static char *_b47f226af4c43e8d8d74ad7ff602d99smsWiaFs1ottppWS[] = {
/* columns rows colors chars-per-pixel */
"17 17 2 1 ",
"  c #78A46A",
". c #D4D29B",
/* pixels */
"      ...  .     ",
" ............... ",
" ............... ",
" ............... ",
" ............... ",
" ............... ",
" ............... ",
" ............... ",
".................",
".................",
".................",
" ............... ",
" ............... ",
" ............... ",
" ............... ",
" ............... ",
"      ...  .     "
};
