/* XPM */
static char *d9badf3edcc34ef6ccb4fa872c9cc493nYc03gXPYx9thnlZ[] = {
/* columns rows colors chars-per-pixel */
"17 16 5 1 ",
"  c None",
". c #584422",
"X c #5E8549",
"o c #78A46A",
"O c #D4D29B",
/* pixels */
" ...  ....  ...  ",
".OO....OO....Oo..",
".OO.OOoOO.OooOo..",
".OO.oooOO.oooOo..",
".OOXXXXOOXXXXOo..",
".OOXoooOoXooooo..",
".OOXXXXOOXXXXOo..",
".OOXXXXOoXXXXoo..",
".OOOOOOOOOOOOoo..",
".OOOOOOOooooooo..",
".....OO..oo......",
".OoXXOOXXoo.XX...",
"..oXX.oOoo.XX....",
".O.oXX....XX..o..",
".OO.oXXXXXXX.Oo..",
" ..............  "
};
