/* XPM */
static char *_17b38132a9c45b2a9894e081ac15415HvSAwBwzsYOCHvg8[] = {
/* columns rows colors chars-per-pixel */
"12 12 4 1 ",
"  c #584422",
". c #5E8549",
"X c #78A46A",
"o c #D4D29B",
/* pixels */
".XXXXXXX.XXX",
" XXooooX ooX",
"   ....  ooX",
"XXXX.XXX.  .",
"XXXX.XXXX XX",
"oooo ooXX.oX",
" ..   oXX.oX",
" XXXX  ...oX",
".XXXX oXX.oX",
".ooXX.oXX XX",
".ooXX.oXX XX",
"....  oXX  ."
};
