/* XPM */
static char *skeleton[] = {
/* columns rows colors chars-per-pixel */
"42 42 142 2 ",
"   c #4C3616",
".  c #533E1D",
"X  c #54401E",
"o  c #554421",
"O  c #594623",
"+  c #564925",
"@  c #5B4926",
"#  c #5E4C29",
"$  c #55502A",
"%  c #5B532D",
"&  c #5D5730",
"*  c #5C5C33",
"=  c #614E2A",
"-  c #63532E",
";  c #655530",
":  c #685732",
">  c #645A33",
",  c #6B5A35",
"<  c #675F38",
"1  c #6C5F38",
"2  c #705F39",
"3  c #5D653A",
"4  c #616037",
"5  c #616239",
"6  c #6C633B",
"7  c #616B3E",
"8  c #69693F",
"9  c #73633D",
"0  c #676C40",
"q  c #6A6C41",
"w  c #786740",
"e  c #746B42",
"r  c #7C6D45",
"t  c #637646",
"y  c #6B7245",
"u  c #6D7548",
"i  c #677848",
"p  c #6D7A4B",
"a  c #707045",
"s  c #737448",
"d  c #7F7148",
"f  c #727B4D",
"g  c #7A794C",
"h  c #7B7E50",
"j  c #82744B",
"k  c #85784E",
"l  c #847D51",
"z  c #8A7D52",
"x  c #6D8552",
"c  c #6A8955",
"v  c #6C8F59",
"b  c #728151",
"n  c #7C8254",
"m  c #758E5A",
"M  c #7B8958",
"N  c #74935E",
"B  c #7E915E",
"V  c #7D9762",
"C  c #759D65",
"Z  c #7F9C66",
"A  c #7F9F68",
"S  c #7BA66C",
"D  c #838356",
"F  c #8D8156",
"G  c #848758",
"H  c #8E8558",
"J  c #858A5B",
"K  c #8B8B5C",
"L  c #92865A",
"P  c #948A5E",
"I  c #968D60",
"U  c #998E61",
"Y  c #809461",
"T  c #8E9665",
"R  c #839B66",
"E  c #839F68",
"W  c #949162",
"Q  c #9D9365",
"!  c #929B68",
"~  c #9B9868",
"^  c #A09567",
"/  c #A09668",
"(  c #A49C6D",
")  c #A89E6F",
"_  c #A89F70",
"`  c #81A76E",
"'  c #8BA36D",
"]  c #82A96F",
"[  c #94A06C",
"{  c #9CA16F",
"}  c #85AA71",
"|  c #8CAD74",
" . c #93A771",
".. c #9CA571",
"X. c #93AD75",
"o. c #98AF77",
"O. c #9EAE78",
"+. c #8CB176",
"@. c #93B077",
"#. c #95B37A",
"$. c #9CB47C",
"%. c #9DB97F",
"&. c #A4A371",
"*. c #ACA474",
"=. c #A6AA77",
"-. c #ADA877",
";. c #A2AE79",
":. c #ACAD7A",
">. c #B4AD7C",
",. c #A3B47D",
"<. c #AAB37E",
"1. c #A2B87F",
"2. c #B5B17E",
"3. c #B8B27F",
"4. c #9FBA81",
"5. c #AEB681",
"6. c #A6BA82",
"7. c #AABC84",
"8. c #BAB482",
"9. c #B1BB84",
"0. c #BBBA86",
"q. c #BDBE89",
"w. c #C0BA87",
"e. c #C2BE8A",
"r. c #ACC087",
"t. c #ADC389",
"y. c #B4C38B",
"u. c #BBC58D",
"i. c #BEC991",
"p. c #C5C28D",
"a. c #C8C48F",
"s. c #C4C690",
"d. c #CAC691",
"f. c #C4CA92",
"g. c #CCCC95",
"h. c #D0CD97",
"j. c #D1CF98",
"k. c #CDD098",
"l. c #D4D29B",
"z. c #D8D69F",
"x. c #D9D7A0",
"c. c #DBD9A1",
/* pixels */
"S S S ` ` ` ` ` } ` S ` | $.7.i.l.c.c.c.l.i.t.%.+.+.r.i.y.r.$.| ] ` ` ` ` ` S S S S ",
"S S } } | | | | | | | | X.X.,.5.u.a.d.a.e.9.,.[ ' ` O.9.9.5.1.$.+.| | | | | | ` S S ",
"S ` | 1.6.6.6.6.6.6.7.7.$.T D H P Q Q Q P K D h p f n K ..5.y.y.7.6.6.1.6.6.1.@.} S ",
"S | %.y.f.f.f.f.f.f.f.d.:.l 1 - , , , , , , > - % - - , F 2.f.k.f.f.d.f.f.f.y.$.| S ",
"` | 6.f.l.l.l.l.l.j.d.8.( z 9 , 2 9 2 2 2 2 9 2 2 2 2 9 z ) 8.a.j.l.l.l.l.l.f.6.| ` ",
"` | 6.f.l.l.l.z.x.g.-.L z P ^ ^ ^ Q ^ ^ ^ ^ ^ ^ / / ^ ^ P z L -.j.z.z.l.l.l.f.6.| ` ",
"} | 6.f.j.l.j.l.j.e.I 9 r ) d.h.g.g.d.g.g.d.g.d.g.d.j.a.) r 9 P w.j.l.l.l.j.f.6.| ` ",
"` | 6.f.l.z.j.a.>.( L k L 8.l.c.z.z.z.z.z.z.z.z.z.c.c.l.8.P k L ( >.p.l.l.l.f.6.| ` ",
"` | 6.f.l.z.h.>.z j L *.0.d.l.z.z.l.z.l.l.z.l.l.z.z.z.z.g.0.*.L j z >.j.z.l.f.6.| ` ",
"` | 6.d.l.x.h.( w : L e.l.z.l.l.l.l.l.l.l.l.l.l.l.j.k.f.g.k.0.F , 9 ) g.z.l.f.6.| ` ",
"` | 6.f.l.x.h.( 2 : L p.c.x.l.l.l.l.l.l.z.l.z.z.l.g.u.7.t.t.$.g # , ( j.z.l.f.6.X.` ",
"] | 6.f.l.x.g.( 9 : L e.x.l.l.l.l.l.l.l.l.l.l.l.l.f.6.| S } Z y - 9 ) g.z.l.f.6.| ` ",
"` | 6.f.l.x.g.) 9 : L e.x.x.l.l.l.l.f.f.i.i.i.k.k.p...N c c x u r H >.g.z.l.f.6.| ` ",
"] | 6.f.l.x.g.( 9 , L p.z.z.l.z.l.g.y.4.#.#.4.u.g.0.T 8 3 * 8 D / >.p.l.l.l.f.6.| ` ",
"` | 6.f.l.x.g.) 9 : L e.l.z.l.l.l.p.$.` C C ` 6.f.0.F - o + 1 P w.l.l.l.l.l.f.6.| ` ",
"` | 6.s.l.x.g.) 9 , L e.x.z.j.f.y.,.R b t t b ..p.8.k + o % s { j.c.z.l.l.j.f.1.| ` ",
"S | 6.f.l.z.g.) 9 , L e.z.z.k.u.%.E p 4 $ $ 6 W e.8.z = % t V 1.g.z.z.l.l.l.f.1.| ` ",
"} X.6.f.l.z.h.( 9 , L e.x.c.k.t.+.N 3 # o o 6 W e.w.U 9 s V | 1.8.p.g.l.l.l.f.6.X.} ",
"$.1.y.g.l.x.g.( 2 : L a.c.c.l.t.} v 3 + + 3 p { p.d.>.( &.5.<.{ P ^ 3.j.l.l.f.y.%.$.",
"7.9.u.g.l.z.h.) 9 , L e.z.z.g.y.+.N y % > p S 6.f.l.g.a.f.g.q.P 2 j *.h.z.l.g.i.9.5.",
"u.u.f.l.l.z.j.>.L k L ( -.-.*.;.$. .J k D ' %.y.k.l.k.i.k.z.p.H ; 9 ( g.z.l.k.f.i.u.",
"g.g.g.l.l.l.j.d.8._ L j w 9 j P 5.u.0.>.2.y.i.k.l.f.t.4.t.k.p.P : 9 ( h.z.l.l.k.k.f.",
"l.l.l.l.j.l.l.z.z.e.Q 9 : = 2 F >.d.f.d.d.a.a.g.g.y.X.' X.y.0.L - 9 ) g.z.z.l.l.l.l.",
"z.z.z.l.l.l.l.x.c.j.3.U z z z L U ( <.t.5.&.~ =.6.$.Y p B $.;.h - 9 ) l.c.l.l.l.z.z.",
"l.l.l.l.l.l.l.l.l.l.d.e.w.e.3.U r e M ` Y s 9 n E R s > y V A u - 9 _ j.z.l.l.l.l.z.",
"g.g.l.l.l.l.l.d.w.3.3.8.p.j.g.( 1 # 7 x i & # 5 x p 4 + * p x p e j ^ 3.p.j.l.l.g.g.",
"y.u.f.k.z.c.l.8.U k j z ^ e.j.) 9 o $ * & + O $ 3 4 % O + & 0 D ^ ^ L z ( e.l.f.u.u.",
"6.7.u.g.l.l.d.*.j : @ - j -.e.( 9 O + - # + O O + + O O + @ 6 I 3.-.k 9 F 8.g.i.7.6.",
"@.%.y.g.d.8.) P z j r d z Q ^ z : # , j r - O . . . . O : r k U ( Q F k ^ w.g.y.$.$.",
"| @.r.d.0.U r z ) >.8.>.) z r - @ : z ) Q 9 O . . . . O r ^ -.U j k Q -.p.g.f.7.#.} ",
"S | 7.f.8.L 9 k *.e.j.j.>.j # . X , Q 0.-.r O = : : O = j *.>.P 9 j *.j.z.l.f.1.| ` ",
"` | 6.f.p.-.P H L ^ 0.l.0.k o   . ; K 1.[ 9 = 9 z z 2 = , k P L L ( w.l.z.l.f.1.| S ",
"` | 6.f.j.h.w.^ r r Q p.2.j @ . X ; b E m 4 - z -.-.k = O = 9 P 3.a.j.l.l.l.f.6.| ` ",
"` | 6.f.l.z.l.>.z r L *.Q r = = 6 r b x t % - F <.<.k = @ : j ) g.z.z.l.l.j.f.6.| ` ",
"` | 6.f.l.z.l.p.>./ L k 9 - = 9 Q Q G 8 % o # f [ ' a # , F *.e.j.z.z.l.l.l.f.6.| ` ",
"` | 6.f.l.l.l.l.l.w.Q 9 @ X = z 2.3.L - o O ; u N N 8 > j >.g.l.l.j.l.l.l.l.f.6.| ` ",
"` | 6.f.l.l.l.z.c.g.-.H 9 = = g ;.,.k @ - 9 k g p p f F ( p.z.c.l.l.l.l.l.l.f.7.| ` ",
"] | 6.f.l.l.l.l.l.j.d.8.^ 9 = q R R y % 9 Q -.K 8 9 P 2.p.h.l.l.l.l.l.l.l.j.f.6.| ` ",
"` | $.y.f.f.f.f.f.f.k.f.:.z 6 q x c y 9 z 3.p.~ e e ( s.l.k.f.g.s.f.f.f.f.d.u.$.| ` ",
"S ] @.$.6.6.6.6.6.7.6.7.,.! D f y y D Q -.q.u...M G ;.f.f.s.y.7.6.6.6.6.6.1.$.+.` S ",
"S S ` | | | | +.| | | | @.o...G < 6 P 8.d.u.r.o.` ' 1.u.u.9.1.#.+.| | | | | | ` S S ",
"S S S ` ` ` ` ` ` ` ` ` | %.,.G , , Q g.l.f.7.#.| +.6.u.y.6.$.+.} ` ` ` ` ` S S S S "
};
